<svg xmlns="http://www.w3.org/2000/svg" xmlns:xlink="http://www.w3.org/1999/xlink" width="1080" zoomAndPan="magnify" viewBox="0 0 810 809.999993" height="1080" preserveAspectRatio="xMidYMid meet" version="1.0"><defs><clipPath id="7f9f1e7f80"><path d="M 139.976562 59 L 670.226562 59 L 670.226562 751 L 139.976562 751 Z M 139.976562 59 " clip-rule="nonzero"/></clipPath><clipPath id="b23e5ee745"><path d="M 139.976562 540 L 670.226562 540 L 670.226562 751 L 139.976562 751 Z M 139.976562 540 " clip-rule="nonzero"/></clipPath></defs><path fill="#002250" d="M 200.589844 0 L 609.410156 0 C 612.691406 0 615.972656 0.0820312 619.25 0.242188 C 622.53125 0.402344 625.804688 0.644531 629.070312 0.964844 C 632.335938 1.289062 635.59375 1.6875 638.839844 2.171875 C 642.089844 2.652344 645.320312 3.214844 648.542969 3.855469 C 651.761719 4.496094 654.964844 5.214844 658.148438 6.011719 C 661.332031 6.808594 664.496094 7.683594 667.636719 8.636719 C 670.777344 9.589844 673.894531 10.621094 676.984375 11.726562 C 680.078125 12.832031 683.136719 14.011719 686.171875 15.269531 C 689.203125 16.527344 692.203125 17.855469 695.171875 19.257812 C 698.140625 20.664062 701.070312 22.136719 703.964844 23.6875 C 706.863281 25.234375 709.71875 26.851562 712.53125 28.539062 C 715.347656 30.226562 718.121094 31.980469 720.851562 33.804688 C 723.582031 35.628906 726.265625 37.519531 728.902344 39.476562 C 731.539062 41.429688 734.125 43.449219 736.664062 45.53125 C 739.199219 47.613281 741.683594 49.757812 744.117188 51.964844 C 746.550781 54.167969 748.925781 56.429688 751.246094 58.75 C 753.570312 61.074219 755.832031 63.449219 758.035156 65.882812 C 760.242188 68.316406 762.386719 70.800781 764.46875 73.335938 C 766.550781 75.875 768.570312 78.460938 770.523438 81.097656 C 772.480469 83.734375 774.371094 86.417969 776.195312 89.148438 C 778.019531 91.878906 779.773438 94.652344 781.460938 97.46875 C 783.148438 100.28125 784.765625 103.136719 786.3125 106.035156 C 787.863281 108.929688 789.335938 111.859375 790.742188 114.828125 C 792.144531 117.796875 793.472656 120.796875 794.730469 123.828125 C 795.988281 126.863281 797.167969 129.921875 798.273438 133.015625 C 799.378906 136.105469 800.410156 139.222656 801.363281 142.363281 C 802.316406 145.503906 803.191406 148.667969 803.988281 151.851562 C 804.785156 155.035156 805.503906 158.238281 806.144531 161.457031 C 806.785156 164.679688 807.347656 167.910156 807.828125 171.160156 C 808.308594 174.40625 808.710938 177.664062 809.035156 180.929688 C 809.355469 184.195312 809.597656 187.46875 809.757812 190.75 C 809.917969 194.027344 810 197.308594 810 200.589844 L 810 609.410156 C 810 612.691406 809.917969 615.972656 809.757812 619.25 C 809.597656 622.53125 809.355469 625.804688 809.035156 629.070312 C 808.710938 632.335938 808.308594 635.59375 807.828125 638.839844 C 807.347656 642.089844 806.785156 645.320312 806.144531 648.542969 C 805.503906 651.761719 804.785156 654.964844 803.988281 658.148438 C 803.191406 661.332031 802.316406 664.496094 801.363281 667.636719 C 800.410156 670.777344 799.378906 673.894531 798.273438 676.984375 C 797.167969 680.078125 795.988281 683.136719 794.730469 686.171875 C 793.472656 689.203125 792.144531 692.203125 790.742188 695.171875 C 789.335938 698.140625 787.863281 701.070312 786.3125 703.964844 C 784.765625 706.863281 783.148438 709.71875 781.460938 712.53125 C 779.773438 715.347656 778.019531 718.121094 776.195312 720.851562 C 774.371094 723.582031 772.480469 726.265625 770.523438 728.902344 C 768.570312 731.539062 766.550781 734.125 764.46875 736.664062 C 762.386719 739.199219 760.242188 741.683594 758.035156 744.117188 C 755.832031 746.550781 753.570312 748.925781 751.25 751.246094 C 748.925781 753.570312 746.550781 755.832031 744.117188 758.035156 C 741.683594 760.242188 739.199219 762.386719 736.664062 764.46875 C 734.125 766.550781 731.539062 768.570312 728.902344 770.523438 C 726.265625 772.480469 723.582031 774.371094 720.851562 776.195312 C 718.121094 778.019531 715.347656 779.773438 712.53125 781.460938 C 709.71875 783.148438 706.863281 784.765625 703.964844 786.3125 C 701.070312 787.863281 698.140625 789.335938 695.171875 790.742188 C 692.203125 792.144531 689.203125 793.472656 686.171875 794.730469 C 683.136719 795.988281 680.078125 797.167969 676.984375 798.273438 C 673.894531 799.378906 670.777344 800.410156 667.636719 801.363281 C 664.496094 802.316406 661.332031 803.191406 658.148438 803.988281 C 654.964844 804.785156 651.761719 805.503906 648.542969 806.144531 C 645.320312 806.785156 642.089844 807.347656 638.839844 807.828125 C 635.59375 808.308594 632.335938 808.710938 629.070312 809.035156 C 625.804688 809.355469 622.53125 809.597656 619.25 809.757812 C 615.972656 809.917969 612.691406 810 609.410156 810 L 200.589844 810 C 197.308594 810 194.027344 809.917969 190.75 809.757812 C 187.46875 809.597656 184.195312 809.355469 180.929688 809.035156 C 177.664062 808.710938 174.40625 808.308594 171.160156 807.828125 C 167.910156 807.347656 164.675781 806.785156 161.457031 806.144531 C 158.238281 805.503906 155.035156 804.785156 151.851562 803.988281 C 148.667969 803.191406 145.503906 802.316406 142.363281 801.363281 C 139.222656 800.410156 136.105469 799.378906 133.015625 798.273438 C 129.921875 797.167969 126.863281 795.988281 123.828125 794.730469 C 120.796875 793.472656 117.796875 792.144531 114.828125 790.742188 C 111.859375 789.335938 108.929688 787.863281 106.035156 786.3125 C 103.136719 784.765625 100.28125 783.148438 97.464844 781.460938 C 94.652344 779.773438 91.878906 778.019531 89.148438 776.195312 C 86.417969 774.371094 83.734375 772.480469 81.097656 770.523438 C 78.460938 768.570312 75.875 766.550781 73.335938 764.46875 C 70.800781 762.386719 68.316406 760.242188 65.882812 758.035156 C 63.449219 755.832031 61.074219 753.570312 58.75 751.25 C 56.429688 748.925781 54.167969 746.550781 51.964844 744.117188 C 49.757812 741.683594 47.613281 739.199219 45.53125 736.664062 C 43.449219 734.125 41.429688 731.539062 39.476562 728.902344 C 37.519531 726.265625 35.628906 723.582031 33.804688 720.851562 C 31.980469 718.121094 30.226562 715.347656 28.539062 712.53125 C 26.851562 709.71875 25.234375 706.863281 23.6875 703.964844 C 22.136719 701.070312 20.664062 698.140625 19.257812 695.171875 C 17.855469 692.203125 16.527344 689.203125 15.269531 686.171875 C 14.011719 683.136719 12.832031 680.078125 11.726562 676.984375 C 10.621094 673.894531 9.589844 670.777344 8.636719 667.636719 C 7.683594 664.496094 6.808594 661.332031 6.011719 658.148438 C 5.214844 654.964844 4.496094 651.761719 3.855469 648.542969 C 3.214844 645.320312 2.652344 642.089844 2.171875 638.839844 C 1.6875 635.59375 1.289062 632.335938 0.964844 629.070312 C 0.644531 625.804688 0.402344 622.53125 0.242188 619.25 C 0.0820312 615.972656 0 612.691406 0 609.410156 L 0 200.589844 C 0 197.308594 0.0820312 194.027344 0.242188 190.75 C 0.402344 187.46875 0.644531 184.195312 0.964844 180.929688 C 1.289062 177.664062 1.6875 174.40625 2.171875 171.160156 C 2.652344 167.910156 3.214844 164.679688 3.855469 161.457031 C 4.496094 158.238281 5.214844 155.035156 6.011719 151.851562 C 6.808594 148.667969 7.683594 145.503906 8.636719 142.363281 C 9.589844 139.222656 10.621094 136.105469 11.726562 133.015625 C 12.832031 129.921875 14.011719 126.863281 15.269531 123.828125 C 16.527344 120.796875 17.855469 117.796875 19.257812 114.828125 C 20.664062 111.859375 22.136719 108.929688 23.6875 106.035156 C 25.234375 103.136719 26.851562 100.28125 28.539062 97.46875 C 30.226562 94.652344 31.980469 91.878906 33.804688 89.148438 C 35.628906 86.417969 37.519531 83.734375 39.476562 81.097656 C 41.429688 78.460938 43.449219 75.875 45.53125 73.335938 C 47.613281 70.800781 49.757812 68.316406 51.964844 65.882812 C 54.167969 63.449219 56.429688 61.074219 58.75 58.75 C 61.074219 56.429688 63.449219 54.167969 65.882812 51.964844 C 68.316406 49.757812 70.800781 47.613281 73.335938 45.53125 C 75.875 43.449219 78.460938 41.429688 81.097656 39.476562 C 83.734375 37.519531 86.417969 35.628906 89.148438 33.804688 C 91.878906 31.980469 94.652344 30.226562 97.46875 28.539062 C 100.28125 26.851562 103.136719 25.234375 106.035156 23.6875 C 108.929688 22.136719 111.859375 20.664062 114.828125 19.257812 C 117.796875 17.855469 120.796875 16.527344 123.828125 15.269531 C 126.863281 14.011719 129.921875 12.832031 133.015625 11.726562 C 136.105469 10.621094 139.222656 9.589844 142.363281 8.636719 C 145.503906 7.683594 148.667969 6.808594 151.851562 6.011719 C 155.035156 5.214844 158.238281 4.496094 161.457031 3.855469 C 164.675781 3.214844 167.910156 2.652344 171.160156 2.171875 C 174.40625 1.6875 177.664062 1.289062 180.929688 0.964844 C 184.195312 0.644531 187.46875 0.402344 190.75 0.242188 C 194.027344 0.0820312 197.308594 0 200.589844 0 Z M 200.589844 0 " fill-opacity="1" fill-rule="nonzero"/><g clip-path="url(#7f9f1e7f80)"><path fill="#e9e9e0" d="M 515.878906 59.847656 L 158.039062 59.847656 C 148.042969 59.847656 139.976562 67.914062 139.976562 83.574219 L 139.976562 738.152344 C 139.976562 742.429688 148.042969 750.5 158.039062 750.5 L 652.199219 750.5 C 662.132812 750.5 670.199219 742.429688 670.199219 738.152344 L 670.199219 219.910156 C 670.199219 211.296875 669.058594 208.527344 667.070312 206.539062 L 523.585938 63.039062 C 521.539062 60.988281 518.769531 59.847656 515.878906 59.847656 Z M 515.878906 59.847656 " fill-opacity="1" fill-rule="nonzero"/></g><path fill="#d9d7ca" d="M 522.261719 61.710938 L 522.261719 207.863281 L 668.335938 207.863281 Z M 522.261719 61.710938 " fill-opacity="1" fill-rule="nonzero"/><g clip-path="url(#b23e5ee745)"><path fill="#f29c1f" d="M 652.199219 750.5 L 158.039062 750.5 C 148.042969 750.5 139.976562 742.429688 139.976562 732.433594 L 139.976562 540.816406 L 670.199219 540.816406 L 670.199219 732.433594 C 670.199219 742.429688 662.132812 750.5 652.199219 750.5 Z M 652.199219 750.5 " fill-opacity="1" fill-rule="nonzero"/></g><path fill="#ffffff" d="M 298.8125 653.125 L 330.304688 713.464844 L 306.882812 713.464844 L 287.132812 666.613281 L 285.445312 666.613281 L 264.253906 713.464844 L 240.769531 713.464844 L 272.320312 653.125 L 238.78125 589.230469 L 261.84375 589.230469 L 283.761719 639.816406 L 285.445312 639.816406 L 309.230469 589.230469 L 332.351562 589.230469 Z M 298.8125 653.125 " fill-opacity="1" fill-rule="nonzero"/><path fill="#ffffff" d="M 454.402344 589.230469 L 474.992188 589.230469 L 474.992188 713.464844 L 454.402344 713.464844 L 454.402344 628.011719 L 426.582031 697.144531 L 408.699219 697.144531 L 380.703125 628.011719 L 380.703125 713.464844 L 360.167969 713.464844 L 360.167969 589.230469 L 380.703125 589.230469 L 417.613281 674.203125 Z M 454.402344 589.230469 " fill-opacity="1" fill-rule="nonzero"/><path fill="#ffffff" d="M 526.714844 589.230469 L 526.714844 698.167969 L 583.855469 698.167969 L 583.855469 713.464844 L 506.183594 713.464844 L 506.183594 589.230469 Z M 526.714844 589.230469 " fill-opacity="1" fill-rule="nonzero"/><path fill="#f29c1f" d="M 250.945312 355.824219 C 247.8125 355.824219 244.625 354.617188 242.214844 352.210938 C 237.398438 347.390625 237.398438 339.625 242.214844 334.804688 L 316.214844 260.796875 C 321.03125 255.980469 328.859375 255.980469 333.675781 260.796875 C 338.492188 265.613281 338.492188 273.382812 333.675781 278.199219 L 259.675781 352.210938 C 257.269531 354.617188 254.136719 355.824219 250.945312 355.824219 Z M 250.945312 355.824219 " fill-opacity="1" fill-rule="nonzero"/><path fill="#f29c1f" d="M 324.945312 429.832031 C 321.816406 429.832031 318.625 428.628906 316.214844 426.21875 L 242.214844 352.210938 C 237.398438 347.390625 237.398438 339.625 242.214844 334.804688 C 247.03125 329.988281 254.859375 329.988281 259.675781 334.804688 L 333.675781 408.753906 C 338.492188 413.574219 338.492188 421.402344 333.675781 426.21875 C 331.269531 428.628906 328.078125 429.832031 324.945312 429.832031 Z M 324.945312 429.832031 " fill-opacity="1" fill-rule="nonzero"/><path fill="#f29c1f" d="M 472.945312 429.832031 C 469.753906 429.832031 466.625 428.628906 464.214844 426.21875 C 459.398438 421.402344 459.398438 413.574219 464.214844 408.753906 L 538.214844 334.804688 C 543.035156 329.988281 550.800781 329.988281 555.617188 334.804688 C 560.433594 339.625 560.433594 347.390625 555.617188 352.210938 L 481.617188 426.21875 C 479.207031 428.628906 476.078125 429.832031 472.945312 429.832031 Z M 472.945312 429.832031 " fill-opacity="1" fill-rule="nonzero"/><path fill="#f29c1f" d="M 546.886719 355.824219 C 543.753906 355.824219 540.625 354.617188 538.214844 352.210938 L 464.214844 278.199219 C 459.398438 273.382812 459.398438 265.613281 464.214844 260.796875 C 469.03125 255.980469 476.800781 255.980469 481.617188 260.796875 L 555.617188 334.804688 C 560.433594 339.625 560.433594 347.390625 555.617188 352.210938 C 553.210938 354.617188 550.078125 355.824219 546.886719 355.824219 Z M 546.886719 355.824219 " fill-opacity="1" fill-rule="nonzero"/><path fill="#f29c1f" d="M 361.914062 454.523438 C 360.589844 454.523438 359.207031 454.28125 357.820312 453.800781 C 351.4375 451.511719 348.066406 444.464844 350.296875 438.023438 L 424.296875 228.398438 C 426.582031 221.957031 433.566406 218.582031 440.011719 220.871094 C 446.453125 223.160156 449.824219 230.144531 447.539062 236.589844 L 373.597656 446.273438 C 371.789062 451.332031 367.035156 454.523438 361.914062 454.523438 Z M 361.914062 454.523438 " fill-opacity="1" fill-rule="nonzero"/></svg>