<svg xmlns="http://www.w3.org/2000/svg" xmlns:xlink="http://www.w3.org/1999/xlink" width="2000" zoomAndPan="magnify" viewBox="0 0 1500 675.000002" height="900" preserveAspectRatio="xMidYMid meet" version="1.0"><defs><clipPath id="c3d117bfa1"><path d="M 24.75 0 L 698.75 0 L 698.75 674 L 24.75 674 Z M 24.75 0 " clip-rule="nonzero"/></clipPath><clipPath id="83293dee63"><path d="M 788.398438 0 L 1462.398438 0 L 1462.398438 674 L 788.398438 674 Z M 788.398438 0 " clip-rule="nonzero"/></clipPath><clipPath id="5723d8a8f3"><path d="M 238 60.726562 L 365 60.726562 L 365 546 L 238 546 Z M 238 60.726562 " clip-rule="nonzero"/></clipPath><clipPath id="efd0add24c"><path d="M 351 476 L 384 476 L 384 613.40625 L 351 613.40625 Z M 351 476 " clip-rule="nonzero"/></clipPath><clipPath id="8d16aa8514"><path d="M 854 60 L 1443.449219 60 L 1443.449219 636 L 854 636 Z M 854 60 " clip-rule="nonzero"/></clipPath></defs><g clip-path="url(#c3d117bfa1)"><path fill="#001e2b" d="M 193.332031 -0.0820312 C 100.277344 -0.0820312 24.832031 75.363281 24.832031 168.417969 L 24.832031 505.417969 C 24.832031 598.472656 100.277344 673.917969 193.332031 673.917969 L 530.332031 673.917969 C 623.386719 673.917969 698.832031 598.472656 698.832031 505.417969 L 698.832031 168.417969 C 698.832031 75.363281 623.386719 -0.0820312 530.332031 -0.0820312 Z M 193.332031 -0.0820312 " fill-opacity="1" fill-rule="nonzero"/></g><g clip-path="url(#83293dee63)"><path fill="#005883" d="M 956.980469 -0.0820312 C 863.925781 -0.0820312 788.480469 75.363281 788.480469 168.417969 L 788.480469 505.417969 C 788.480469 598.472656 863.925781 673.917969 956.980469 673.917969 L 1293.980469 673.917969 C 1387.035156 673.917969 1462.480469 598.472656 1462.480469 505.417969 L 1462.480469 168.417969 C 1462.480469 75.363281 1387.035156 -0.0820312 1293.980469 -0.0820312 Z M 956.980469 -0.0820312 " fill-opacity="1" fill-rule="nonzero"/></g><path fill="#599636" d="M 360.847656 62.230469 L 375.589844 89.933594 C 378.902344 95.042969 382.492188 99.570312 386.722656 103.785156 C 399.066406 116.132812 410.785156 129.070312 421.316406 142.921875 C 446.296875 175.734375 463.144531 212.179688 475.175781 251.589844 C 482.390625 275.667969 486.308594 300.363281 486.601562 325.339844 C 487.8125 400.003906 462.226562 464.113281 410.648438 517.394531 C 402.222656 525.824219 393.214844 533.632812 383.546875 540.574219 C 378.4375 540.574219 376.019531 536.652344 373.914062 533.042969 C 369.996094 526.429688 367.597656 518.882812 366.386719 511.367188 C 364.574219 502.335938 363.382812 493.300781 363.972656 483.976562 L 363.972656 479.761719 C 363.558594 478.863281 359.050781 64.351562 360.847656 62.230469 Z M 360.847656 62.230469 " fill-opacity="1" fill-rule="nonzero"/><g clip-path="url(#5723d8a8f3)"><path fill="#6cac48" d="M 360.847656 61.3125 C 360.242188 60.105469 359.640625 61.019531 359.035156 61.605469 C 359.328125 67.652344 357.222656 73.039062 353.925781 78.1875 C 350.300781 83.300781 345.5 87.21875 340.683594 91.433594 C 313.929688 114.613281 292.867188 142.609375 276.003906 173.921875 C 253.5625 216.0625 241.996094 261.226562 238.71875 308.777344 C 237.214844 325.925781 244.136719 386.445312 249.539062 403.90625 C 264.28125 450.261719 290.761719 489.105469 325.0625 522.820312 C 333.488281 530.9375 342.496094 538.46875 351.820312 545.703125 C 354.527344 545.703125 354.824219 543.285156 355.445312 541.488281 C 356.632812 537.640625 357.539062 533.726562 358.152344 529.746094 L 364.195312 484.597656 Z M 360.847656 61.3125 " fill-opacity="1" fill-rule="nonzero"/></g><g clip-path="url(#efd0add24c)"><path fill="#c2bfbf" d="M 375.589844 558.917969 C 376.191406 552.007812 379.507812 546.273438 383.117188 540.558594 C 379.492188 539.054688 376.796875 536.066406 374.691406 532.734375 C 372.878906 529.726562 371.378906 526.117188 370.203125 522.800781 C 365.992188 510.160156 365.09375 496.894531 363.886719 483.976562 L 363.886719 476.152344 C 362.382812 477.359375 362.074219 487.585938 362.074219 489.105469 C 361.191406 502.777344 359.386719 516.324219 356.652344 529.746094 C 355.753906 535.167969 355.152344 540.574219 351.820312 545.394531 C 351.820312 545.996094 351.820312 546.601562 352.113281 547.5 C 357.53125 563.457031 359.015625 579.710938 359.933594 596.273438 L 359.933594 602.320312 C 359.933594 609.539062 359.640625 608.019531 365.628906 610.4375 C 368.046875 611.335938 370.738281 611.644531 373.15625 613.441406 C 374.96875 613.441406 375.261719 611.9375 375.261719 610.730469 L 374.363281 600.800781 L 374.363281 573.097656 C 374.070312 568.261719 374.96875 563.457031 375.570312 558.933594 Z M 375.589844 558.917969 " fill-opacity="1" fill-rule="nonzero"/></g><g clip-path="url(#8d16aa8514)"><path fill="#ffffff" d="M 1397.003906 504.78125 C 1364.960938 503.890625 1340.105469 507.171875 1319.269531 515.9375 C 1313.269531 518.347656 1303.644531 518.347656 1302.851562 525.898438 C 1306.058594 529.066406 1306.445312 534.25 1309.257812 538.640625 C 1314.058594 546.613281 1322.484375 557.347656 1330.089844 562.917969 L 1355.730469 581.242188 C 1371.355469 590.789062 1388.984375 596.367188 1404.207031 605.925781 C 1413.027344 611.503906 1421.835938 618.671875 1430.65625 624.652344 C 1435.144531 627.835938 1437.867188 633.023438 1443.480469 635.003906 L 1443.480469 633.800781 C 1440.675781 630.230469 1439.871094 625.054688 1437.078125 621.054688 L 1425.042969 609.515625 C 1413.429688 593.984375 1399 580.4375 1383.371094 569.300781 C 1370.546875 560.535156 1342.511719 548.59375 1337.300781 533.867188 L 1336.511719 532.976562 C 1345.3125 532.082031 1355.730469 528.984375 1364.152344 526.59375 C 1377.785156 523.023438 1390.199219 523.808594 1404.207031 520.230469 L 1423.453125 514.652344 L 1423.453125 511.082031 C 1416.242188 503.914062 1411.03125 494.355469 1403.425781 487.59375 C 1382.996094 470.074219 1360.542969 452.945312 1337.300781 438.613281 C 1324.882812 430.652344 1308.851562 425.464844 1295.632812 418.710938 C 1290.808594 416.316406 1282.808594 415.121094 1280.007812 411.140625 C 1272.777344 402.394531 1268.78125 390.835938 1263.570312 380.476562 L 1230.722656 311.191406 C 1223.507812 295.664062 1219.089844 280.132812 1210.289062 265.800781 C 1169.015625 198.105469 1124.128906 157.09375 1055.214844 116.871094 C 1040.394531 108.507812 1022.765625 104.910156 1004.023438 100.539062 L 973.976562 98.929688 C 967.554688 96.148438 961.152344 88.578125 955.539062 84.992188 C 932.699219 70.65625 873.796875 39.597656 856.957031 80.527344 C 846.136719 106.410156 872.988281 131.890625 882.105469 145.039062 C 888.929688 154.195312 897.730469 164.546875 902.554688 174.898438 C 905.246094 181.664062 906.144531 188.839844 908.957031 196.007812 C 915.359375 213.527344 921.375 233.046875 929.792969 249.378906 C 934.28125 257.742188 938.996094 266.515625 944.609375 274.074219 C 947.816406 278.535156 953.429688 280.445312 954.621094 287.613281 C 949.007812 295.582031 948.625 307.515625 945.417969 317.484375 C 930.984375 362.484375 936.597656 418.226562 957.027344 451.355469 C 963.449219 461.308594 978.582031 483.21875 999.113281 474.847656 C 1017.144531 467.679688 1013.121094 444.984375 1018.332031 425.074219 C 1019.542969 420.296875 1018.734375 417.113281 1021.132812 413.917969 L 1021.132812 414.808594 L 1037.566406 447.859375 C 1049.988281 467.367188 1071.628906 487.679688 1089.65625 501.230469 C 1099.261719 508.394531 1106.878906 520.75 1118.894531 525.121094 L 1118.894531 523.917969 L 1118.105469 523.917969 C 1115.699219 520.347656 1112.085938 518.738281 1108.882812 515.957031 C 1101.671875 508.789062 1093.660156 500.023438 1088.046875 492.0625 C 1071.226562 469.769531 1056.410156 445.074219 1043.179688 419.59375 C 1036.757812 407.25 1031.144531 393.710938 1025.957031 381.367188 C 1023.53125 376.585938 1023.53125 369.410156 1019.535156 367.035156 C 1013.515625 375.78125 1004.714844 383.367188 1000.289062 394.113281 C 992.671875 411.230469 991.882812 432.339844 989.082031 454.238281 C 987.464844 454.640625 988.183594 454.238281 987.464844 455.132812 C 974.660156 451.953125 970.238281 438.800781 965.433594 427.660156 C 953.417969 399.386719 951.40625 353.996094 961.824219 321.339844 C 964.625 312.976562 976.660156 286.691406 971.855469 278.730469 C 969.429688 271.164062 961.4375 266.789062 957.019531 260.8125 C 951.8125 253.242188 946.21875 243.691406 942.605469 235.332031 C 932.996094 213.019531 928.191406 188.339844 917.765625 166.039062 C 912.945312 155.683594 904.539062 144.929688 897.722656 135.378906 C 890.105469 124.625 881.710938 117.058594 875.691406 104.320312 C 873.691406 99.859375 870.886719 92.773438 874.09375 87.988281 C 874.882812 84.804688 876.5 83.527344 879.6875 82.8125 C 884.898438 78.351562 899.734375 84.007812 904.941406 86.382812 C 919.761719 92.363281 932.179688 97.933594 944.601562 106.285156 C 950.214844 110.265625 956.230469 117.835938 963.441406 119.832031 L 971.867188 119.832031 C 984.691406 122.617188 999.101562 120.726562 1011.109375 124.296875 C 1032.347656 131.078125 1051.578125 141.019531 1068.820312 151.785156 C 1121.300781 184.832031 1164.589844 231.824219 1193.828125 287.976562 C 1198.632812 297.136719 1200.636719 305.496094 1205.054688 315.054688 C 1213.480469 334.574219 1223.894531 354.476562 1232.292969 373.601562 C 1240.714844 392.320312 1248.726562 411.445312 1260.742188 426.972656 C 1266.761719 435.335938 1290.792969 439.710938 1301.605469 444.09375 C 1309.625 447.660156 1322.035156 450.875 1329.265625 455.25 C 1342.878906 463.609375 1356.503906 473.167969 1369.320312 482.328125 C 1375.722656 487.09375 1395.765625 497.050781 1396.960938 504.996094 Z M 988.390625 158.746094 C 982.828125 158.695312 977.355469 159.359375 971.972656 160.734375 L 971.972656 161.628906 L 972.761719 161.628906 C 975.96875 168 981.582031 172.382812 985.585938 177.960938 L 994.808594 197.078125 L 995.601562 196.1875 C 1001.214844 192.207031 1004.023438 185.832031 1004.023438 176.285156 C 1001.617188 173.5 1001.222656 170.707031 999.21875 167.921875 C 996.8125 163.941406 991.605469 161.941406 988.390625 158.765625 Z M 988.390625 158.746094 " fill-opacity="1" fill-rule="evenodd"/></g></svg>