<svg xmlns="http://www.w3.org/2000/svg" xmlns:xlink="http://www.w3.org/1999/xlink" width="1080" zoomAndPan="magnify" viewBox="0 0 810 809.999993" height="1080" preserveAspectRatio="xMidYMid meet" version="1.0"><path fill="#efc725" d="M 200.589844 0 L 609.410156 0 C 612.691406 0 615.972656 0.0820312 619.25 0.242188 C 622.53125 0.402344 625.804688 0.644531 629.070312 0.964844 C 632.335938 1.289062 635.59375 1.6875 638.839844 2.171875 C 642.089844 2.652344 645.320312 3.214844 648.542969 3.855469 C 651.761719 4.496094 654.964844 5.214844 658.148438 6.011719 C 661.332031 6.808594 664.496094 7.683594 667.636719 8.636719 C 670.777344 9.589844 673.894531 10.621094 676.984375 11.726562 C 680.078125 12.832031 683.136719 14.011719 686.171875 15.269531 C 689.203125 16.527344 692.203125 17.855469 695.171875 19.257812 C 698.140625 20.664062 701.070312 22.136719 703.964844 23.6875 C 706.863281 25.234375 709.71875 26.851562 712.53125 28.539062 C 715.347656 30.226562 718.121094 31.980469 720.851562 33.804688 C 723.582031 35.628906 726.265625 37.519531 728.902344 39.476562 C 731.539062 41.429688 734.125 43.449219 736.664062 45.53125 C 739.199219 47.613281 741.683594 49.757812 744.117188 51.964844 C 746.550781 54.167969 748.925781 56.429688 751.246094 58.75 C 753.570312 61.074219 755.832031 63.449219 758.035156 65.882812 C 760.242188 68.316406 762.386719 70.800781 764.46875 73.335938 C 766.550781 75.875 768.570312 78.460938 770.523438 81.097656 C 772.480469 83.734375 774.371094 86.417969 776.195312 89.148438 C 778.019531 91.878906 779.773438 94.652344 781.460938 97.46875 C 783.148438 100.28125 784.765625 103.136719 786.3125 106.035156 C 787.863281 108.929688 789.335938 111.859375 790.742188 114.828125 C 792.144531 117.796875 793.472656 120.796875 794.730469 123.828125 C 795.988281 126.863281 797.167969 129.921875 798.273438 133.015625 C 799.378906 136.105469 800.410156 139.222656 801.363281 142.363281 C 802.316406 145.503906 803.191406 148.667969 803.988281 151.851562 C 804.785156 155.035156 805.503906 158.238281 806.144531 161.457031 C 806.785156 164.679688 807.347656 167.910156 807.828125 171.160156 C 808.308594 174.40625 808.710938 177.664062 809.035156 180.929688 C 809.355469 184.195312 809.597656 187.46875 809.757812 190.75 C 809.917969 194.027344 810 197.308594 810 200.589844 L 810 609.410156 C 810 612.691406 809.917969 615.972656 809.757812 619.25 C 809.597656 622.53125 809.355469 625.804688 809.035156 629.070312 C 808.710938 632.335938 808.308594 635.59375 807.828125 638.839844 C 807.347656 642.089844 806.785156 645.320312 806.144531 648.542969 C 805.503906 651.761719 804.785156 654.964844 803.988281 658.148438 C 803.191406 661.332031 802.316406 664.496094 801.363281 667.636719 C 800.410156 670.777344 799.378906 673.894531 798.273438 676.984375 C 797.167969 680.078125 795.988281 683.136719 794.730469 686.171875 C 793.472656 689.203125 792.144531 692.203125 790.742188 695.171875 C 789.335938 698.140625 787.863281 701.070312 786.3125 703.964844 C 784.765625 706.863281 783.148438 709.71875 781.460938 712.53125 C 779.773438 715.347656 778.019531 718.121094 776.195312 720.851562 C 774.371094 723.582031 772.480469 726.265625 770.523438 728.902344 C 768.570312 731.539062 766.550781 734.125 764.46875 736.664062 C 762.386719 739.199219 760.242188 741.683594 758.035156 744.117188 C 755.832031 746.550781 753.570312 748.925781 751.25 751.246094 C 748.925781 753.570312 746.550781 755.832031 744.117188 758.035156 C 741.683594 760.242188 739.199219 762.386719 736.664062 764.46875 C 734.125 766.550781 731.539062 768.570312 728.902344 770.523438 C 726.265625 772.480469 723.582031 774.371094 720.851562 776.195312 C 718.121094 778.019531 715.347656 779.773438 712.53125 781.460938 C 709.71875 783.148438 706.863281 784.765625 703.964844 786.3125 C 701.070312 787.863281 698.140625 789.335938 695.171875 790.742188 C 692.203125 792.144531 689.203125 793.472656 686.171875 794.730469 C 683.136719 795.988281 680.078125 797.167969 676.984375 798.273438 C 673.894531 799.378906 670.777344 800.410156 667.636719 801.363281 C 664.496094 802.316406 661.332031 803.191406 658.148438 803.988281 C 654.964844 804.785156 651.761719 805.503906 648.542969 806.144531 C 645.320312 806.785156 642.089844 807.347656 638.839844 807.828125 C 635.59375 808.308594 632.335938 808.710938 629.070312 809.035156 C 625.804688 809.355469 622.53125 809.597656 619.25 809.757812 C 615.972656 809.917969 612.691406 810 609.410156 810 L 200.589844 810 C 197.308594 810 194.027344 809.917969 190.75 809.757812 C 187.46875 809.597656 184.195312 809.355469 180.929688 809.035156 C 177.664062 808.710938 174.40625 808.308594 171.160156 807.828125 C 167.910156 807.347656 164.675781 806.785156 161.457031 806.144531 C 158.238281 805.503906 155.035156 804.785156 151.851562 803.988281 C 148.667969 803.191406 145.503906 802.316406 142.363281 801.363281 C 139.222656 800.410156 136.105469 799.378906 133.015625 798.273438 C 129.921875 797.167969 126.863281 795.988281 123.828125 794.730469 C 120.796875 793.472656 117.796875 792.144531 114.828125 790.742188 C 111.859375 789.335938 108.929688 787.863281 106.035156 786.3125 C 103.136719 784.765625 100.28125 783.148438 97.464844 781.460938 C 94.652344 779.773438 91.878906 778.019531 89.148438 776.195312 C 86.417969 774.371094 83.734375 772.480469 81.097656 770.523438 C 78.460938 768.570312 75.875 766.550781 73.335938 764.46875 C 70.800781 762.386719 68.316406 760.242188 65.882812 758.035156 C 63.449219 755.832031 61.074219 753.570312 58.75 751.25 C 56.429688 748.925781 54.167969 746.550781 51.964844 744.117188 C 49.757812 741.683594 47.613281 739.199219 45.53125 736.664062 C 43.449219 734.125 41.429688 731.539062 39.476562 728.902344 C 37.519531 726.265625 35.628906 723.582031 33.804688 720.851562 C 31.980469 718.121094 30.226562 715.347656 28.539062 712.53125 C 26.851562 709.71875 25.234375 706.863281 23.6875 703.964844 C 22.136719 701.070312 20.664062 698.140625 19.257812 695.171875 C 17.855469 692.203125 16.527344 689.203125 15.269531 686.171875 C 14.011719 683.136719 12.832031 680.078125 11.726562 676.984375 C 10.621094 673.894531 9.589844 670.777344 8.636719 667.636719 C 7.683594 664.496094 6.808594 661.332031 6.011719 658.148438 C 5.214844 654.964844 4.496094 651.761719 3.855469 648.542969 C 3.214844 645.320312 2.652344 642.089844 2.171875 638.839844 C 1.6875 635.59375 1.289062 632.335938 0.964844 629.070312 C 0.644531 625.804688 0.402344 622.53125 0.242188 619.25 C 0.0820312 615.972656 0 612.691406 0 609.410156 L 0 200.589844 C 0 197.308594 0.0820312 194.027344 0.242188 190.75 C 0.402344 187.46875 0.644531 184.195312 0.964844 180.929688 C 1.289062 177.664062 1.6875 174.40625 2.171875 171.160156 C 2.652344 167.910156 3.214844 164.679688 3.855469 161.457031 C 4.496094 158.238281 5.214844 155.035156 6.011719 151.851562 C 6.808594 148.667969 7.683594 145.503906 8.636719 142.363281 C 9.589844 139.222656 10.621094 136.105469 11.726562 133.015625 C 12.832031 129.921875 14.011719 126.863281 15.269531 123.828125 C 16.527344 120.796875 17.855469 117.796875 19.257812 114.828125 C 20.664062 111.859375 22.136719 108.929688 23.6875 106.035156 C 25.234375 103.136719 26.851562 100.28125 28.539062 97.46875 C 30.226562 94.652344 31.980469 91.878906 33.804688 89.148438 C 35.628906 86.417969 37.519531 83.734375 39.476562 81.097656 C 41.429688 78.460938 43.449219 75.875 45.53125 73.335938 C 47.613281 70.800781 49.757812 68.316406 51.964844 65.882812 C 54.167969 63.449219 56.429688 61.074219 58.75 58.75 C 61.074219 56.429688 63.449219 54.167969 65.882812 51.964844 C 68.316406 49.757812 70.800781 47.613281 73.335938 45.53125 C 75.875 43.449219 78.460938 41.429688 81.097656 39.476562 C 83.734375 37.519531 86.417969 35.628906 89.148438 33.804688 C 91.878906 31.980469 94.652344 30.226562 97.46875 28.539062 C 100.28125 26.851562 103.136719 25.234375 106.035156 23.6875 C 108.929688 22.136719 111.859375 20.664062 114.828125 19.257812 C 117.796875 17.855469 120.796875 16.527344 123.828125 15.269531 C 126.863281 14.011719 129.921875 12.832031 133.015625 11.726562 C 136.105469 10.621094 139.222656 9.589844 142.363281 8.636719 C 145.503906 7.683594 148.667969 6.808594 151.851562 6.011719 C 155.035156 5.214844 158.238281 4.496094 161.457031 3.855469 C 164.675781 3.214844 167.910156 2.652344 171.160156 2.171875 C 174.40625 1.6875 177.664062 1.289062 180.929688 0.964844 C 184.195312 0.644531 187.46875 0.402344 190.75 0.242188 C 194.027344 0.0820312 197.308594 0 200.589844 0 Z M 200.589844 0 " fill-opacity="1" fill-rule="nonzero"/><path fill="#f44336" d="M 393.824219 425.476562 C 376.265625 397.167969 363.527344 373.695312 345.882812 329.5 C 316.042969 254.851562 527.359375 187.398438 441.679688 57.785156 C 478.820312 147.316406 308.371094 202.667969 292.539062 277.230469 C 278.058594 345.8125 393.738281 425.476562 393.824219 425.476562 Z M 393.824219 425.476562 " fill-opacity="1" fill-rule="nonzero"/><path fill="#f44336" d="M 397.835938 291.269531 C 394.457031 335.535156 437.050781 359.128906 438.285156 391.464844 C 439.269531 417.785156 412.824219 439.726562 412.824219 439.726562 C 412.824219 439.726562 460.820312 430.296875 475.792969 390.148438 C 492.421875 345.566406 443.527344 315.039062 448.558594 279.339844 C 453.257812 245.246094 554.667969 181.820312 554.667969 181.820312 C 554.667969 181.820312 405.453125 191.707031 397.835938 291.269531 Z M 397.835938 291.269531 " fill-opacity="1" fill-rule="nonzero"/><path fill="#1565c0" d="M 542.210938 428.238281 C 573.070312 421.304688 599.089844 440.957031 599.089844 463.601562 C 599.089844 514.640625 528.347656 562.882812 528.347656 562.882812 C 528.347656 562.882812 637.867188 549.828125 637.867188 466.027344 C 637.867188 410.609375 584.082031 396.761719 542.210938 428.238281 Z M 542.210938 428.238281 " fill-opacity="1" fill-rule="nonzero"/><path fill="#1565c0" d="M 490.222656 469.40625 C 490.222656 469.40625 524.371094 445.074219 533.464844 435.945312 C 449.667969 453.730469 258.335938 456.125 258.335938 440.675781 C 258.335938 426.441406 320.035156 411.859375 320.035156 411.859375 C 320.035156 411.859375 183.28125 409.886719 183.28125 450.230469 C 183.28125 492.277344 362.296875 495.289062 490.222656 469.40625 Z M 490.222656 469.40625 " fill-opacity="1" fill-rule="nonzero"/><path fill="#1565c0" d="M 469.214844 507.691406 C 389.882812 534.0625 243.769531 525.636719 287.046875 490.21875 C 265.972656 490.21875 234.722656 507.164062 234.722656 523.453125 C 234.722656 556.125 392.75 581.355469 509.714844 533.519531 Z M 469.214844 507.691406 " fill-opacity="1" fill-rule="nonzero"/><path fill="#1565c0" d="M 306.488281 563.429688 C 277.707031 563.429688 259.074219 581.972656 259.074219 595.484375 C 259.074219 637.550781 430.789062 641.789062 498.824219 599.089844 L 455.578125 570.378906 C 404.75 592.722656 277.074219 595.800781 306.488281 563.429688 Z M 306.488281 563.429688 " fill-opacity="1" fill-rule="nonzero"/><path fill="#1565c0" d="M 616.050781 631.921875 C 616.050781 615.453125 597.488281 607.695312 590.839844 603.980469 C 630.039062 698.511719 198.199219 691.175781 198.199219 635.367188 C 198.199219 622.683594 229.992188 610.261719 259.375 616.140625 L 234.390625 601.378906 C 175.839844 592.195312 136.078125 617.933594 136.078125 638.695312 C 136.078125 735.511719 616.050781 730.851562 616.050781 631.921875 Z M 616.050781 631.921875 " fill-opacity="1" fill-rule="nonzero"/><path fill="#1565c0" d="M 663.890625 666.617188 C 590.945312 738.660156 405.980469 764.910156 219.980469 720.398438 C 405.980469 799.625 663.007812 755.007812 663.890625 666.617188 Z M 663.890625 666.617188 " fill-opacity="1" fill-rule="nonzero"/></svg>