<svg xmlns="http://www.w3.org/2000/svg" xmlns:xlink="http://www.w3.org/1999/xlink" width="2000" zoomAndPan="magnify" viewBox="0 0 1500 675.000002" height="900" preserveAspectRatio="xMidYMid meet" version="1.0"><path fill="#8cc84b" d="M 721.933594 8.964844 C 738.742188 -0.546875 760.171875 -0.589844 776.558594 8.964844 L 1027.488281 150.339844 C 1043.183594 159.15625 1053.6875 176.648438 1053.539062 194.726562 L 1053.539062 478.183594 C 1053.644531 497.019531 1042.109375 514.886719 1025.554688 523.539062 L 775.96875 664.257812 C 773.84375 665.433594 771.652344 666.460938 769.390625 667.339844 C 767.128906 668.222656 764.816406 668.949219 762.457031 669.523438 C 760.101562 670.097656 757.714844 670.511719 755.300781 670.765625 C 752.886719 671.019531 750.464844 671.117188 748.039062 671.046875 C 745.613281 670.980469 743.199219 670.753906 740.804688 670.367188 C 738.410156 669.976562 736.046875 669.429688 733.726562 668.726562 C 731.402344 668.027344 729.136719 667.171875 726.925781 666.167969 C 724.714844 665.160156 722.582031 664.015625 720.527344 662.726562 L 645.628906 619.472656 C 640.523438 616.429688 634.789062 614.011719 631.175781 609.078125 C 634.367188 604.796875 640.042969 604.25 644.664062 602.359375 C 655.082031 599.042969 664.621094 593.960938 674.203125 588.585938 C 676.617188 586.90625 679.578125 587.535156 681.890625 589.046875 L 745.757812 625.960938 C 750.316406 628.585938 754.9375 625.121094 758.847656 622.914062 L 1003.917969 484.691406 C 1006.941406 483.222656 1008.621094 480.03125 1008.371094 476.714844 L 1008.371094 195.984375 C 1008.707031 192.207031 1006.542969 188.761719 1003.117188 187.230469 L 754.160156 47.117188 C 753.445312 46.621094 752.667969 46.242188 751.835938 45.980469 C 751.003906 45.722656 750.152344 45.589844 749.28125 45.589844 C 748.410156 45.585938 747.554688 45.714844 746.722656 45.972656 C 745.890625 46.226562 745.113281 46.601562 744.394531 47.097656 L 495.792969 187.503906 C 492.433594 189.035156 490.121094 192.4375 490.542969 196.214844 L 490.542969 476.945312 C 490.246094 480.261719 492.011719 483.390625 495.058594 484.820312 L 561.488281 522.296875 C 573.96875 529.019531 589.285156 532.796875 603.023438 527.863281 C 604.519531 527.300781 605.960938 526.628906 607.351562 525.84375 C 608.746094 525.0625 610.070312 524.179688 611.328125 523.195312 C 612.585938 522.214844 613.761719 521.140625 614.855469 519.976562 C 615.953125 518.816406 616.953125 517.578125 617.859375 516.261719 C 618.765625 514.949219 619.566406 513.574219 620.261719 512.136719 C 620.960938 510.703125 621.542969 509.222656 622.015625 507.695312 C 622.488281 506.171875 622.84375 504.617188 623.078125 503.039062 C 623.3125 501.460938 623.429688 499.875 623.421875 498.277344 L 623.484375 219.230469 C 623.191406 215.09375 627.097656 211.671875 631.113281 212.089844 L 663.046875 212.089844 C 667.246094 211.984375 670.546875 216.4375 669.980469 220.59375 L 669.914062 501.40625 C 669.9375 526.351562 659.683594 553.480469 636.59375 565.71875 C 608.148438 580.417969 572.980469 577.332031 544.871094 563.199219 L 473.441406 523.726562 C 456.632812 515.328125 445.351562 497.1875 445.457031 478.371094 L 445.457031 194.914062 C 445.472656 192.621094 445.644531 190.339844 445.964844 188.070312 C 446.285156 185.796875 446.757812 183.558594 447.375 181.351562 C 447.996094 179.144531 448.757812 176.988281 449.667969 174.882812 C 450.574219 172.773438 451.617188 170.738281 452.796875 168.769531 C 453.972656 166.804688 455.277344 164.921875 456.707031 163.128906 C 458.136719 161.335938 459.679688 159.644531 461.332031 158.054688 C 462.988281 156.46875 464.742188 154.996094 466.589844 153.640625 C 468.441406 152.285156 470.375 151.058594 472.390625 149.960938 Z M 794.289062 205.453125 C 830.570312 203.355469 869.417969 204.070312 902.066406 221.9375 C 927.339844 235.628906 941.351562 264.351562 941.8125 292.445312 C 941.101562 296.226562 937.148438 298.324219 933.535156 298.050781 C 923.03125 298.03125 912.484375 298.199219 901.9375 297.988281 C 897.464844 298.15625 894.878906 294.042969 894.3125 290.09375 C 891.289062 276.65625 883.957031 263.363281 871.308594 256.875 C 851.894531 247.15625 829.375 247.636719 808.195312 247.847656 C 792.734375 248.6875 776.117188 250.011719 763.027344 259.082031 C 752.945312 265.96875 749.917969 280.078125 753.511719 291.039062 C 756.871094 299.082031 766.179688 301.664062 773.761719 304.054688 C 817.503906 315.480469 863.828125 314.554688 906.75 329.398438 C 924.503906 335.53125 941.878906 347.457031 947.96875 366.039062 C 955.910156 390.941406 952.445312 420.714844 934.734375 440.703125 C 920.363281 457.167969 899.4375 465.902344 878.535156 470.980469 C 850.742188 477.175781 821.917969 477.324219 793.699219 474.550781 C 767.167969 471.527344 739.5625 464.558594 719.078125 446.5 C 701.554688 431.296875 693.027344 407.613281 693.867188 384.769531 C 694.078125 380.90625 697.921875 378.21875 701.640625 378.53125 L 733.152344 378.53125 C 737.398438 378.238281 740.507812 381.890625 740.714844 385.882812 C 742.671875 398.480469 747.480469 412.128906 758.65625 419.476562 C 780.214844 433.375 807.25 432.410156 831.917969 432.808594 C 852.359375 431.90625 875.300781 431.632812 892.003906 418.113281 C 900.824219 410.40625 903.410156 397.535156 901.035156 386.449219 C 898.453125 377.082031 888.429688 372.738281 880.027344 369.652344 C 836.851562 356.003906 790.003906 360.957031 747.25 345.503906 C 729.898438 339.375 713.109375 327.78125 706.449219 309.957031 C 697.144531 284.761719 701.410156 253.539062 721.011719 234.222656 C 739.917969 215.007812 767.648438 207.597656 793.910156 204.949219 Z M 794.289062 205.453125 " fill-opacity="1" fill-rule="nonzero"/></svg>