<svg xmlns="http://www.w3.org/2000/svg" xmlns:xlink="http://www.w3.org/1999/xlink" width="1080" zoomAndPan="magnify" viewBox="0 0 810 809.999993" height="1080" preserveAspectRatio="xMidYMid meet" version="1.0"><path fill="#0e003d" d="M 200.589844 0 L 609.410156 0 C 612.691406 0 615.972656 0.0820312 619.25 0.242188 C 622.53125 0.402344 625.804688 0.644531 629.070312 0.964844 C 632.335938 1.289062 635.59375 1.6875 638.839844 2.171875 C 642.089844 2.652344 645.320312 3.214844 648.542969 3.855469 C 651.761719 4.496094 654.964844 5.214844 658.148438 6.011719 C 661.332031 6.808594 664.496094 7.683594 667.636719 8.636719 C 670.777344 9.589844 673.894531 10.621094 676.984375 11.726562 C 680.078125 12.832031 683.136719 14.011719 686.171875 15.269531 C 689.203125 16.527344 692.203125 17.855469 695.171875 19.257812 C 698.140625 20.664062 701.070312 22.136719 703.964844 23.6875 C 706.863281 25.234375 709.71875 26.851562 712.53125 28.539062 C 715.347656 30.226562 718.121094 31.980469 720.851562 33.804688 C 723.582031 35.628906 726.265625 37.519531 728.902344 39.476562 C 731.539062 41.429688 734.125 43.449219 736.664062 45.53125 C 739.199219 47.613281 741.683594 49.757812 744.117188 51.964844 C 746.550781 54.167969 748.925781 56.429688 751.246094 58.75 C 753.570312 61.074219 755.832031 63.449219 758.035156 65.882812 C 760.242188 68.316406 762.386719 70.800781 764.46875 73.335938 C 766.550781 75.875 768.570312 78.460938 770.523438 81.097656 C 772.480469 83.734375 774.371094 86.417969 776.195312 89.148438 C 778.019531 91.878906 779.773438 94.652344 781.460938 97.46875 C 783.148438 100.28125 784.765625 103.136719 786.3125 106.035156 C 787.863281 108.929688 789.335938 111.859375 790.742188 114.828125 C 792.144531 117.796875 793.472656 120.796875 794.730469 123.828125 C 795.988281 126.863281 797.167969 129.921875 798.273438 133.015625 C 799.378906 136.105469 800.410156 139.222656 801.363281 142.363281 C 802.316406 145.503906 803.191406 148.667969 803.988281 151.851562 C 804.785156 155.035156 805.503906 158.238281 806.144531 161.457031 C 806.785156 164.679688 807.347656 167.910156 807.828125 171.160156 C 808.308594 174.40625 808.710938 177.664062 809.035156 180.929688 C 809.355469 184.195312 809.597656 187.46875 809.757812 190.75 C 809.917969 194.027344 810 197.308594 810 200.589844 L 810 609.410156 C 810 612.691406 809.917969 615.972656 809.757812 619.25 C 809.597656 622.53125 809.355469 625.804688 809.035156 629.070312 C 808.710938 632.335938 808.308594 635.59375 807.828125 638.839844 C 807.347656 642.089844 806.785156 645.320312 806.144531 648.542969 C 805.503906 651.761719 804.785156 654.964844 803.988281 658.148438 C 803.191406 661.332031 802.316406 664.496094 801.363281 667.636719 C 800.410156 670.777344 799.378906 673.894531 798.273438 676.984375 C 797.167969 680.078125 795.988281 683.136719 794.730469 686.171875 C 793.472656 689.203125 792.144531 692.203125 790.742188 695.171875 C 789.335938 698.140625 787.863281 701.070312 786.3125 703.964844 C 784.765625 706.863281 783.148438 709.71875 781.460938 712.53125 C 779.773438 715.347656 778.019531 718.121094 776.195312 720.851562 C 774.371094 723.582031 772.480469 726.265625 770.523438 728.902344 C 768.570312 731.539062 766.550781 734.125 764.46875 736.664062 C 762.386719 739.199219 760.242188 741.683594 758.035156 744.117188 C 755.832031 746.550781 753.570312 748.925781 751.25 751.246094 C 748.925781 753.570312 746.550781 755.832031 744.117188 758.035156 C 741.683594 760.242188 739.199219 762.386719 736.664062 764.46875 C 734.125 766.550781 731.539062 768.570312 728.902344 770.523438 C 726.265625 772.480469 723.582031 774.371094 720.851562 776.195312 C 718.121094 778.019531 715.347656 779.773438 712.53125 781.460938 C 709.71875 783.148438 706.863281 784.765625 703.964844 786.3125 C 701.070312 787.863281 698.140625 789.335938 695.171875 790.742188 C 692.203125 792.144531 689.203125 793.472656 686.171875 794.730469 C 683.136719 795.988281 680.078125 797.167969 676.984375 798.273438 C 673.894531 799.378906 670.777344 800.410156 667.636719 801.363281 C 664.496094 802.316406 661.332031 803.191406 658.148438 803.988281 C 654.964844 804.785156 651.761719 805.503906 648.542969 806.144531 C 645.320312 806.785156 642.089844 807.347656 638.839844 807.828125 C 635.59375 808.308594 632.335938 808.710938 629.070312 809.035156 C 625.804688 809.355469 622.53125 809.597656 619.25 809.757812 C 615.972656 809.917969 612.691406 810 609.410156 810 L 200.589844 810 C 197.308594 810 194.027344 809.917969 190.75 809.757812 C 187.46875 809.597656 184.195312 809.355469 180.929688 809.035156 C 177.664062 808.710938 174.40625 808.308594 171.160156 807.828125 C 167.910156 807.347656 164.675781 806.785156 161.457031 806.144531 C 158.238281 805.503906 155.035156 804.785156 151.851562 803.988281 C 148.667969 803.191406 145.503906 802.316406 142.363281 801.363281 C 139.222656 800.410156 136.105469 799.378906 133.015625 798.273438 C 129.921875 797.167969 126.863281 795.988281 123.828125 794.730469 C 120.796875 793.472656 117.796875 792.144531 114.828125 790.742188 C 111.859375 789.335938 108.929688 787.863281 106.035156 786.3125 C 103.136719 784.765625 100.28125 783.148438 97.464844 781.460938 C 94.652344 779.773438 91.878906 778.019531 89.148438 776.195312 C 86.417969 774.371094 83.734375 772.480469 81.097656 770.523438 C 78.460938 768.570312 75.875 766.550781 73.335938 764.46875 C 70.800781 762.386719 68.316406 760.242188 65.882812 758.035156 C 63.449219 755.832031 61.074219 753.570312 58.75 751.25 C 56.429688 748.925781 54.167969 746.550781 51.964844 744.117188 C 49.757812 741.683594 47.613281 739.199219 45.53125 736.664062 C 43.449219 734.125 41.429688 731.539062 39.476562 728.902344 C 37.519531 726.265625 35.628906 723.582031 33.804688 720.851562 C 31.980469 718.121094 30.226562 715.347656 28.539062 712.53125 C 26.851562 709.71875 25.234375 706.863281 23.6875 703.964844 C 22.136719 701.070312 20.664062 698.140625 19.257812 695.171875 C 17.855469 692.203125 16.527344 689.203125 15.269531 686.171875 C 14.011719 683.136719 12.832031 680.078125 11.726562 676.984375 C 10.621094 673.894531 9.589844 670.777344 8.636719 667.636719 C 7.683594 664.496094 6.808594 661.332031 6.011719 658.148438 C 5.214844 654.964844 4.496094 651.761719 3.855469 648.542969 C 3.214844 645.320312 2.652344 642.089844 2.171875 638.839844 C 1.6875 635.59375 1.289062 632.335938 0.964844 629.070312 C 0.644531 625.804688 0.402344 622.53125 0.242188 619.25 C 0.0820312 615.972656 0 612.691406 0 609.410156 L 0 200.589844 C 0 197.308594 0.0820312 194.027344 0.242188 190.75 C 0.402344 187.46875 0.644531 184.195312 0.964844 180.929688 C 1.289062 177.664062 1.6875 174.40625 2.171875 171.160156 C 2.652344 167.910156 3.214844 164.679688 3.855469 161.457031 C 4.496094 158.238281 5.214844 155.035156 6.011719 151.851562 C 6.808594 148.667969 7.683594 145.503906 8.636719 142.363281 C 9.589844 139.222656 10.621094 136.105469 11.726562 133.015625 C 12.832031 129.921875 14.011719 126.863281 15.269531 123.828125 C 16.527344 120.796875 17.855469 117.796875 19.257812 114.828125 C 20.664062 111.859375 22.136719 108.929688 23.6875 106.035156 C 25.234375 103.136719 26.851562 100.28125 28.539062 97.46875 C 30.226562 94.652344 31.980469 91.878906 33.804688 89.148438 C 35.628906 86.417969 37.519531 83.734375 39.476562 81.097656 C 41.429688 78.460938 43.449219 75.875 45.53125 73.335938 C 47.613281 70.800781 49.757812 68.316406 51.964844 65.882812 C 54.167969 63.449219 56.429688 61.074219 58.75 58.75 C 61.074219 56.429688 63.449219 54.167969 65.882812 51.964844 C 68.316406 49.757812 70.800781 47.613281 73.335938 45.53125 C 75.875 43.449219 78.460938 41.429688 81.097656 39.476562 C 83.734375 37.519531 86.417969 35.628906 89.148438 33.804688 C 91.878906 31.980469 94.652344 30.226562 97.46875 28.539062 C 100.28125 26.851562 103.136719 25.234375 106.035156 23.6875 C 108.929688 22.136719 111.859375 20.664062 114.828125 19.257812 C 117.796875 17.855469 120.796875 16.527344 123.828125 15.269531 C 126.863281 14.011719 129.921875 12.832031 133.015625 11.726562 C 136.105469 10.621094 139.222656 9.589844 142.363281 8.636719 C 145.503906 7.683594 148.667969 6.808594 151.851562 6.011719 C 155.035156 5.214844 158.238281 4.496094 161.457031 3.855469 C 164.675781 3.214844 167.910156 2.652344 171.160156 2.171875 C 174.40625 1.6875 177.664062 1.289062 180.929688 0.964844 C 184.195312 0.644531 187.46875 0.402344 190.75 0.242188 C 194.027344 0.0820312 197.308594 0 200.589844 0 Z M 200.589844 0 " fill-opacity="1" fill-rule="nonzero"/><path fill="#a4c639" d="M 290.429688 91.421875 L 319.050781 142.507812 C 265.894531 169.066406 229.097656 220.183594 229.097656 279.425781 L 572.578125 279.425781 C 572.578125 220.167969 535.761719 169.066406 482.621094 142.507812 L 511.246094 91.421875 C 511.246094 91.421875 513.28125 89.386719 509.207031 87.351562 C 507.171875 85.316406 505.136719 89.386719 505.136719 89.386719 L 474.480469 140.472656 C 462.585938 135.125 450.265625 131.074219 437.519531 128.320312 C 424.777344 125.566406 411.882812 124.164062 398.84375 124.121094 C 385.804688 124.164062 372.910156 125.566406 360.164062 128.320312 C 347.421875 131.074219 335.101562 135.125 323.207031 140.472656 L 292.667969 89.386719 C 292.667969 89.386719 290.632812 87.351562 288.597656 87.351562 C 288.597656 89.386719 290.632812 91.421875 290.632812 91.421875 Z M 319.050781 191.554688 C 320.101562 191.628906 321.136719 191.796875 322.160156 192.054688 C 323.179688 192.316406 324.171875 192.664062 325.128906 193.101562 C 326.089844 193.539062 327 194.058594 327.867188 194.660156 C 328.730469 195.257812 329.539062 195.933594 330.28125 196.675781 C 331.027344 197.421875 331.699219 198.226562 332.300781 199.09375 C 332.902344 199.957031 333.421875 200.871094 333.859375 201.828125 C 334.296875 202.785156 334.644531 203.777344 334.90625 204.796875 C 335.164062 205.816406 335.332031 206.855469 335.40625 207.90625 C 335.332031 208.957031 335.164062 209.992188 334.90625 211.011719 C 334.644531 212.03125 334.296875 213.023438 333.859375 213.980469 C 333.421875 214.9375 332.902344 215.851562 332.300781 216.714844 C 331.699219 217.582031 331.027344 218.386719 330.28125 219.132812 C 329.539062 219.878906 328.730469 220.550781 327.867188 221.152344 C 327 221.75 326.089844 222.269531 325.128906 222.707031 C 324.171875 223.144531 323.179688 223.492188 322.160156 223.753906 C 321.136719 224.011719 320.101562 224.179688 319.050781 224.253906 C 318.511719 224.261719 317.976562 224.242188 317.441406 224.199219 C 316.90625 224.152344 316.371094 224.078125 315.84375 223.980469 C 315.316406 223.882812 314.792969 223.757812 314.277344 223.605469 C 313.761719 223.453125 313.253906 223.277344 312.753906 223.074219 C 312.257812 222.875 311.769531 222.648438 311.292969 222.394531 C 310.816406 222.144531 310.355469 221.871094 309.90625 221.574219 C 309.457031 221.277344 309.027344 220.957031 308.609375 220.617188 C 308.195312 220.277344 307.796875 219.917969 307.414062 219.535156 C 307.035156 219.15625 306.675781 218.757812 306.332031 218.34375 C 305.992188 217.925781 305.675781 217.492188 305.378906 217.046875 C 305.078125 216.597656 304.804688 216.136719 304.554688 215.660156 C 304.304688 215.183594 304.078125 214.699219 303.875 214.199219 C 303.671875 213.699219 303.496094 213.195312 303.34375 212.679688 C 303.195312 212.160156 303.070312 211.640625 302.96875 211.109375 C 302.871094 210.582031 302.796875 210.050781 302.753906 209.515625 C 302.707031 208.980469 302.6875 208.441406 302.695312 207.90625 C 302.6875 207.367188 302.707031 206.832031 302.753906 206.292969 C 302.796875 205.757812 302.871094 205.226562 302.96875 204.699219 C 303.070312 204.167969 303.195312 203.648438 303.34375 203.132812 C 303.496094 202.617188 303.671875 202.109375 303.875 201.609375 C 304.078125 201.113281 304.304688 200.625 304.554688 200.148438 C 304.804688 199.675781 305.078125 199.210938 305.378906 198.765625 C 305.675781 198.316406 305.992188 197.882812 306.332031 197.46875 C 306.675781 197.050781 307.035156 196.652344 307.414062 196.273438 C 307.796875 195.890625 308.195312 195.53125 308.609375 195.191406 C 309.027344 194.851562 309.457031 194.53125 309.90625 194.234375 C 310.355469 193.9375 310.816406 193.664062 311.292969 193.414062 C 311.769531 193.164062 312.257812 192.9375 312.753906 192.734375 C 313.253906 192.53125 313.761719 192.355469 314.277344 192.203125 C 314.792969 192.054688 315.316406 191.929688 315.84375 191.828125 C 316.371094 191.730469 316.90625 191.65625 317.441406 191.613281 C 317.976562 191.566406 318.511719 191.546875 319.050781 191.554688 Z M 482.605469 191.554688 C 483.65625 191.628906 484.691406 191.796875 485.714844 192.054688 C 486.734375 192.316406 487.726562 192.664062 488.683594 193.101562 C 489.640625 193.539062 490.554688 194.058594 491.421875 194.660156 C 492.285156 195.257812 493.089844 195.933594 493.835938 196.675781 C 494.582031 197.421875 495.253906 198.226562 495.855469 199.09375 C 496.457031 199.957031 496.976562 200.871094 497.414062 201.828125 C 497.851562 202.785156 498.199219 203.777344 498.460938 204.796875 C 498.71875 205.816406 498.886719 206.855469 498.960938 207.90625 C 498.886719 208.957031 498.71875 209.992188 498.460938 211.011719 C 498.199219 212.03125 497.851562 213.023438 497.414062 213.980469 C 496.976562 214.9375 496.457031 215.851562 495.855469 216.714844 C 495.253906 217.582031 494.582031 218.386719 493.835938 219.132812 C 493.089844 219.878906 492.285156 220.550781 491.421875 221.148438 C 490.554688 221.75 489.640625 222.269531 488.683594 222.707031 C 487.726562 223.144531 486.734375 223.492188 485.714844 223.753906 C 484.691406 224.011719 483.65625 224.179688 482.605469 224.253906 C 482.066406 224.261719 481.53125 224.242188 480.996094 224.199219 C 480.460938 224.152344 479.925781 224.078125 479.398438 223.980469 C 478.871094 223.882812 478.347656 223.757812 477.832031 223.605469 C 477.316406 223.453125 476.808594 223.277344 476.308594 223.074219 C 475.808594 222.875 475.324219 222.648438 474.847656 222.394531 C 474.371094 222.144531 473.910156 221.871094 473.460938 221.574219 C 473.011719 221.277344 472.582031 220.957031 472.164062 220.617188 C 471.746094 220.277344 471.347656 219.917969 470.96875 219.535156 C 470.589844 219.15625 470.226562 218.757812 469.886719 218.34375 C 469.546875 217.925781 469.230469 217.492188 468.929688 217.046875 C 468.632812 216.597656 468.359375 216.136719 468.109375 215.660156 C 467.859375 215.183594 467.632812 214.699219 467.429688 214.199219 C 467.226562 213.699219 467.050781 213.195312 466.898438 212.679688 C 466.75 212.160156 466.621094 211.640625 466.523438 211.109375 C 466.425781 210.582031 466.351562 210.050781 466.308594 209.515625 C 466.261719 208.980469 466.242188 208.441406 466.25 207.90625 C 466.242188 207.367188 466.261719 206.832031 466.308594 206.292969 C 466.351562 205.757812 466.425781 205.226562 466.523438 204.699219 C 466.621094 204.167969 466.75 203.648438 466.898438 203.132812 C 467.050781 202.617188 467.226562 202.109375 467.429688 201.609375 C 467.632812 201.113281 467.859375 200.625 468.109375 200.148438 C 468.359375 199.675781 468.632812 199.210938 468.929688 198.765625 C 469.230469 198.316406 469.546875 197.882812 469.886719 197.46875 C 470.226562 197.050781 470.589844 196.652344 470.96875 196.273438 C 471.347656 195.890625 471.746094 195.53125 472.164062 195.191406 C 472.582031 194.851562 473.011719 194.53125 473.460938 194.234375 C 473.910156 193.9375 474.371094 193.664062 474.847656 193.414062 C 475.324219 193.164062 475.808594 192.9375 476.308594 192.734375 C 476.808594 192.53125 477.316406 192.355469 477.832031 192.203125 C 478.347656 192.054688 478.871094 191.929688 479.398438 191.828125 C 479.925781 191.730469 480.457031 191.65625 480.996094 191.613281 C 481.53125 191.566406 482.066406 191.546875 482.605469 191.554688 Z M 227.078125 299.691406 L 227.078125 561.289062 C 227.078125 573.550781 243.433594 591.933594 255.699219 591.933594 L 296.417969 591.933594 L 296.417969 681.855469 C 296.417969 704.328125 312.773438 722.5625 333.234375 722.5625 C 353.695312 722.5625 370.050781 704.175781 370.050781 681.855469 L 370.050781 592.085938 L 429.332031 592.085938 L 429.332031 682.011719 C 429.332031 704.480469 445.6875 722.714844 466.148438 722.714844 C 486.609375 722.714844 502.964844 704.328125 502.964844 682.011719 L 502.964844 592.085938 L 543.683594 592.085938 C 555.949219 592.085938 572.304688 575.738281 572.304688 561.441406 L 572.304688 299.691406 Z M 227.078125 299.691406 " fill-opacity="1" fill-rule="nonzero"/><path fill="#a4c639" d="M 169.832031 293.757812 C 190.277344 293.757812 206.648438 312.140625 206.648438 334.460938 L 206.648438 489.78125 C 206.648438 512.253906 190.292969 530.488281 169.832031 530.488281 C 149.371094 530.488281 133.015625 512.101562 133.015625 489.78125 L 133.015625 334.632812 C 133.015625 312.160156 149.371094 293.925781 169.832031 293.925781 Z M 169.832031 293.757812 " fill-opacity="1" fill-rule="nonzero"/><path fill="#a4c639" d="M 631.875 293.757812 C 652.320312 293.757812 668.691406 312.140625 668.691406 334.460938 L 668.691406 489.78125 C 668.691406 512.253906 652.335938 530.488281 631.875 530.488281 C 611.414062 530.488281 595.058594 512.101562 595.058594 489.78125 L 595.058594 334.632812 C 595.058594 312.160156 611.414062 293.925781 631.875 293.925781 Z M 631.875 293.757812 " fill-opacity="1" fill-rule="nonzero"/></svg>