<svg xmlns="http://www.w3.org/2000/svg" xmlns:xlink="http://www.w3.org/1999/xlink" width="2000" zoomAndPan="magnify" viewBox="0 0 1500 675.000002" height="900" preserveAspectRatio="xMidYMid meet" version="1.0"><defs><g/></defs><path stroke-linecap="round" transform="matrix(21.062545, 0, 0, 21.062545, 993.571585, 70.07682)" fill="none" stroke-linejoin="round" d="M 8.99992 19.000021 C 4.700041 20.400055 4.700041 16.500026 2.999933 16.000027 M 15.000093 21.000017 L 15.000093 17.500024 C 15.000093 16.500026 15.100055 16.09999 14.499908 15.500029 C 17.299976 15.199955 20.000082 14.099994 20.000082 9.500041 C 19.999896 9.352416 19.992664 9.204975 19.978198 9.058091 C 19.963917 8.911207 19.942589 8.765251 19.914214 8.620407 C 19.885839 8.475378 19.850602 8.332203 19.808317 8.190697 C 19.766217 8.049191 19.717256 7.910097 19.661804 7.773413 C 19.606166 7.636544 19.544222 7.502828 19.475788 7.371893 C 19.407168 7.241144 19.332613 7.113919 19.251938 6.990218 C 19.171263 6.866701 19.084839 6.74708 18.992666 6.63191 C 18.900307 6.516554 18.802941 6.405835 18.700011 6.299937 C 18.74823 6.171785 18.790144 6.041592 18.825567 5.909174 C 18.860989 5.776941 18.889921 5.643225 18.912362 5.50821 C 18.934802 5.37301 18.950566 5.237068 18.959654 5.100385 C 18.968741 4.963701 18.971152 4.827017 18.966887 4.690148 C 18.962621 4.553279 18.951679 4.416781 18.934061 4.281025 C 18.916442 4.145083 18.892147 4.010439 18.86136 3.877094 C 18.830574 3.743563 18.793297 3.611887 18.749714 3.482065 C 18.706131 3.352243 18.656057 3.225018 18.600048 3.100018 C 18.600048 3.100018 17.500087 2.799945 15.100055 4.40009 C 14.593936 4.268228 14.081512 4.169007 13.562596 4.102612 C 13.043865 4.036218 12.523095 4.003021 11.999914 4.003021 C 11.476918 4.003021 10.956147 4.036218 10.437417 4.102612 C 9.918501 4.169007 9.406077 4.268228 8.899958 4.40009 C 6.499926 2.799945 5.399965 3.100018 5.399965 3.100018 C 5.343956 3.225018 5.293882 3.352243 5.250299 3.482065 C 5.206531 3.611887 5.169439 3.743563 5.138653 3.877094 C 5.107866 4.010439 5.083571 4.145083 5.065952 4.281025 C 5.048334 4.416781 5.037392 4.553279 5.033126 4.690148 C 5.028861 4.827017 5.031271 4.963701 5.040359 5.100385 C 5.049447 5.237068 5.065211 5.37301 5.087651 5.50821 C 5.110092 5.643225 5.139023 5.776941 5.174446 5.909174 C 5.209869 6.041592 5.251783 6.171785 5.300002 6.299937 C 5.197072 6.405835 5.099521 6.516554 5.007347 6.63191 C 4.915174 6.74708 4.82875 6.866701 4.748075 6.990218 C 4.6674 7.113919 4.59266 7.241144 4.524225 7.371893 C 4.455791 7.502828 4.393847 7.636544 4.338209 7.773413 C 4.282757 7.910097 4.233795 8.049191 4.191696 8.190697 C 4.149411 8.332203 4.114174 8.475378 4.085799 8.620407 C 4.057423 8.765251 4.036096 8.911207 4.021815 9.058091 C 4.007349 9.204975 4.000116 9.352416 3.999931 9.500041 C 3.999931 14.099994 6.700036 15.199955 9.499919 15.500029 C 8.899958 16.09999 8.899958 16.699952 8.99992 17.500024 L 8.99992 21.000017 " stroke="#898989" stroke-width="2" stroke-opacity="1" stroke-miterlimit="4"/><g fill="#737373" fill-opacity="1"><g transform="translate(10.45683, 430.793754)"><g><path d="M 10.46875 -111.71875 C 10.46875 -133.71875 15.226562 -153.335938 24.75 -170.578125 C 34.269531 -187.828125 47.546875 -201.265625 64.578125 -210.890625 C 81.617188 -220.523438 100.925781 -225.34375 122.5 -225.34375 C 148.945312 -225.34375 171.585938 -218.359375 190.421875 -204.390625 C 209.253906 -190.421875 221.84375 -171.378906 228.1875 -147.265625 L 168.53125 -147.265625 C 164.082031 -156.566406 157.785156 -163.648438 149.640625 -168.515625 C 141.492188 -173.390625 132.238281 -175.828125 121.875 -175.828125 C 105.15625 -175.828125 91.613281 -170.007812 81.25 -158.375 C 70.882812 -146.738281 65.703125 -131.1875 65.703125 -111.71875 C 65.703125 -92.25 70.882812 -76.695312 81.25 -65.0625 C 91.613281 -53.425781 105.15625 -47.609375 121.875 -47.609375 C 132.238281 -47.609375 141.492188 -50.039062 149.640625 -54.90625 C 157.785156 -59.769531 164.082031 -66.859375 168.53125 -76.171875 L 228.1875 -76.171875 C 221.84375 -52.046875 209.253906 -33.050781 190.421875 -19.1875 C 171.585938 -5.332031 148.945312 1.59375 122.5 1.59375 C 100.925781 1.59375 81.617188 -3.21875 64.578125 -12.84375 C 47.546875 -22.476562 34.269531 -35.863281 24.75 -53 C 15.226562 -70.132812 10.46875 -89.707031 10.46875 -111.71875 Z M 10.46875 -111.71875 "/></g></g></g><g fill="#737373" fill-opacity="1"><g transform="translate(252.292747, 430.793754)"><g><path d="M 125.046875 2.21875 C 104.097656 2.21875 84.894531 -2.644531 67.4375 -12.375 C 49.988281 -22.113281 36.128906 -35.707031 25.859375 -53.15625 C 15.597656 -70.613281 10.46875 -90.238281 10.46875 -112.03125 C 10.46875 -133.820312 15.597656 -153.390625 25.859375 -170.734375 C 36.128906 -188.085938 49.988281 -201.628906 67.4375 -211.359375 C 84.894531 -221.097656 104.097656 -225.96875 125.046875 -225.96875 C 145.992188 -225.96875 165.191406 -221.097656 182.640625 -211.359375 C 200.097656 -201.628906 213.851562 -188.085938 223.90625 -170.734375 C 233.957031 -153.390625 238.984375 -133.820312 238.984375 -112.03125 C 238.984375 -90.238281 233.90625 -70.613281 223.75 -53.15625 C 213.59375 -35.707031 199.835938 -22.113281 182.484375 -12.375 C 165.140625 -2.644531 145.992188 2.21875 125.046875 2.21875 Z M 125.046875 -47.28125 C 142.816406 -47.28125 157.046875 -53.203125 167.734375 -65.046875 C 178.421875 -76.898438 183.765625 -92.5625 183.765625 -112.03125 C 183.765625 -131.707031 178.421875 -147.414062 167.734375 -159.15625 C 157.046875 -170.90625 142.816406 -176.78125 125.046875 -176.78125 C 107.054688 -176.78125 92.71875 -170.957031 82.03125 -159.3125 C 71.351562 -147.675781 66.015625 -131.914062 66.015625 -112.03125 C 66.015625 -92.351562 71.351562 -76.640625 82.03125 -64.890625 C 92.71875 -53.148438 107.054688 -47.28125 125.046875 -47.28125 Z M 125.046875 -47.28125 "/></g></g></g><g fill="#737373" fill-opacity="1"><g transform="translate(501.745575, 430.793754)"><g><path d="M 103.140625 -222.796875 C 126.628906 -222.796875 147.15625 -218.140625 164.71875 -208.828125 C 182.28125 -199.523438 195.875 -186.460938 205.5 -169.640625 C 215.125 -152.816406 219.9375 -133.40625 219.9375 -111.40625 C 219.9375 -89.601562 215.125 -70.238281 205.5 -53.3125 C 195.875 -36.382812 182.226562 -23.265625 164.5625 -13.953125 C 146.894531 -4.648438 126.421875 0 103.140625 0 L 19.671875 0 L 19.671875 -222.796875 Z M 99.65625 -46.96875 C 120.175781 -46.96875 136.148438 -52.570312 147.578125 -63.78125 C 159.003906 -75 164.71875 -90.875 164.71875 -111.40625 C 164.71875 -131.925781 159.003906 -147.894531 147.578125 -159.3125 C 136.148438 -170.738281 120.175781 -176.453125 99.65625 -176.453125 L 73.953125 -176.453125 L 73.953125 -46.96875 Z M 99.65625 -46.96875 "/></g></g></g><g fill="#737373" fill-opacity="1"><g transform="translate(732.473564, 430.793754)"><g><path d="M 73.953125 -179.3125 L 73.953125 -134.25 L 146.625 -134.25 L 146.625 -92.359375 L 73.953125 -92.359375 L 73.953125 -43.484375 L 156.15625 -43.484375 L 156.15625 0 L 19.671875 0 L 19.671875 -222.796875 L 156.15625 -222.796875 L 156.15625 -179.3125 Z M 73.953125 -179.3125 "/></g></g></g></svg>