<svg xmlns="http://www.w3.org/2000/svg" xmlns:xlink="http://www.w3.org/1999/xlink" width="1000" zoomAndPan="magnify" viewBox="0 0 750 749.999995" height="1000" preserveAspectRatio="xMidYMid meet" version="1.0"><path fill="#000000" d="M 187.589844 -0.0898438 C 84.042969 -0.0898438 0.0898438 83.863281 0.0898438 187.410156 L 0.0898438 562.410156 C 0.0898438 665.957031 84.042969 749.910156 187.589844 749.910156 L 562.589844 749.910156 C 666.136719 749.910156 750.089844 665.957031 750.089844 562.410156 L 750.089844 187.410156 C 750.089844 83.863281 666.136719 -0.0898438 562.589844 -0.0898438 Z M 187.589844 -0.0898438 " fill-opacity="1" fill-rule="nonzero"/><path fill="#8cc84b" d="M 348.894531 57.019531 C 364.511719 48.179688 384.421875 48.140625 399.648438 57.019531 L 632.800781 188.375 C 647.382812 196.570312 657.144531 212.820312 657.007812 229.617188 L 657.007812 492.992188 C 657.105469 510.492188 646.386719 527.09375 631.003906 535.132812 L 399.101562 665.886719 C 397.128906 666.976562 395.089844 667.929688 392.988281 668.75 C 390.886719 669.566406 388.742188 670.242188 386.550781 670.777344 C 384.359375 671.308594 382.140625 671.695312 379.898438 671.929688 C 377.65625 672.167969 375.40625 672.257812 373.152344 672.195312 C 370.898438 672.132812 368.65625 671.917969 366.429688 671.558594 C 364.203125 671.199219 362.011719 670.691406 359.851562 670.039062 C 357.691406 669.386719 355.585938 668.589844 353.535156 667.65625 C 351.480469 666.722656 349.5 665.660156 347.589844 664.460938 L 278 624.273438 C 273.253906 621.441406 267.925781 619.199219 264.566406 614.613281 C 267.535156 610.632812 272.804688 610.128906 277.101562 608.371094 C 286.78125 605.289062 295.644531 600.566406 304.546875 595.574219 C 306.789062 594.011719 309.542969 594.597656 311.691406 596.003906 L 371.03125 630.300781 C 375.269531 632.738281 379.5625 629.519531 383.195312 627.472656 L 610.898438 499.042969 C 613.710938 497.675781 615.273438 494.710938 615.039062 491.628906 L 615.039062 230.789062 C 615.351562 227.277344 613.339844 224.078125 610.15625 222.652344 L 378.839844 92.464844 C 378.175781 92.003906 377.453125 91.65625 376.679688 91.414062 C 375.90625 91.171875 375.117188 91.046875 374.304688 91.046875 C 373.496094 91.042969 372.703125 91.164062 371.929688 91.402344 C 371.152344 91.640625 370.433594 91.988281 369.765625 92.445312 L 138.777344 222.90625 C 135.65625 224.332031 133.507812 227.492188 133.898438 231.003906 L 133.898438 491.84375 C 133.625 494.925781 135.265625 497.832031 138.09375 499.160156 L 199.820312 533.984375 C 211.414062 540.226562 225.644531 543.738281 238.410156 539.152344 C 239.800781 538.628906 241.140625 538.003906 242.433594 537.277344 C 243.726562 536.550781 244.957031 535.730469 246.128906 534.816406 C 247.296875 533.902344 248.390625 532.90625 249.40625 531.824219 C 250.421875 530.746094 251.351562 529.59375 252.195312 528.375 C 253.035156 527.152344 253.78125 525.875 254.429688 524.542969 C 255.078125 523.207031 255.621094 521.832031 256.058594 520.414062 C 256.496094 518.996094 256.824219 517.554688 257.042969 516.089844 C 257.261719 514.621094 257.371094 513.148438 257.363281 511.664062 L 257.421875 252.382812 C 257.148438 248.542969 260.78125 245.359375 264.507812 245.75 L 294.179688 245.75 C 298.085938 245.652344 301.148438 249.789062 300.621094 253.652344 L 300.5625 514.570312 C 300.582031 537.746094 291.058594 562.953125 269.605469 574.328125 C 243.171875 587.984375 210.496094 585.117188 184.378906 571.988281 L 118.007812 535.308594 C 102.390625 527.503906 91.910156 510.648438 92.007812 493.167969 L 92.007812 229.792969 C 92.023438 227.664062 92.179688 225.542969 92.480469 223.433594 C 92.777344 221.324219 93.214844 219.242188 93.792969 217.191406 C 94.367188 215.140625 95.078125 213.136719 95.921875 211.179688 C 96.761719 209.222656 97.730469 207.328125 98.828125 205.5 C 99.921875 203.671875 101.132812 201.925781 102.460938 200.257812 C 103.789062 198.59375 105.222656 197.019531 106.761719 195.546875 C 108.296875 194.070312 109.925781 192.703125 111.644531 191.441406 C 113.367188 190.183594 115.160156 189.042969 117.03125 188.023438 Z M 416.125 239.585938 C 449.835938 237.636719 485.929688 238.300781 516.265625 254.902344 C 539.746094 267.621094 552.769531 294.308594 553.195312 320.414062 C 552.535156 323.925781 548.863281 325.875 545.507812 325.621094 C 535.746094 325.601562 525.945312 325.757812 516.148438 325.5625 C 511.988281 325.71875 509.589844 321.894531 509.0625 318.230469 C 506.25 305.742188 499.4375 293.394531 487.6875 287.363281 C 469.648438 278.332031 448.722656 278.78125 429.046875 278.976562 C 414.679688 279.757812 399.238281 280.984375 387.078125 289.414062 C 377.707031 295.8125 374.898438 308.921875 378.234375 319.105469 C 381.359375 326.578125 390.007812 328.976562 397.054688 331.203125 C 437.695312 341.816406 480.738281 340.957031 520.617188 354.75 C 537.113281 360.445312 553.253906 371.527344 558.917969 388.792969 C 566.296875 411.933594 563.074219 439.597656 546.617188 458.167969 C 533.265625 473.464844 513.824219 481.582031 494.402344 486.300781 C 468.578125 492.058594 441.792969 492.195312 415.578125 489.617188 C 390.925781 486.808594 365.273438 480.332031 346.242188 463.554688 C 329.960938 449.429688 322.035156 427.421875 322.816406 406.195312 C 323.011719 402.605469 326.585938 400.109375 330.039062 400.402344 L 359.320312 400.402344 C 363.261719 400.128906 366.152344 403.523438 366.347656 407.230469 C 368.164062 418.9375 372.632812 431.617188 383.019531 438.445312 C 403.046875 451.359375 428.167969 450.464844 451.085938 450.832031 C 470.078125 449.996094 491.394531 449.742188 506.914062 437.175781 C 515.113281 430.015625 517.515625 418.058594 515.308594 407.757812 C 512.90625 399.054688 503.597656 395.015625 495.789062 392.148438 C 455.671875 379.46875 412.144531 384.074219 372.417969 369.714844 C 356.292969 364.015625 340.699219 353.246094 334.511719 336.683594 C 325.863281 313.273438 329.824219 284.261719 348.039062 266.3125 C 365.605469 248.464844 391.371094 241.578125 415.773438 239.117188 Z M 416.125 239.585938 " fill-opacity="1" fill-rule="nonzero"/></svg>