<svg xmlns="http://www.w3.org/2000/svg" xmlns:xlink="http://www.w3.org/1999/xlink" width="1000" zoomAndPan="magnify" viewBox="0 0 750 749.999995" height="1000" preserveAspectRatio="xMidYMid meet" version="1.0"><defs><clipPath id="752bf29cbc"><path d="M 91.480469 122 L 658.480469 122 L 658.480469 628 L 91.480469 628 Z M 91.480469 122 " clip-rule="nonzero"/></clipPath></defs><path fill="#181b27" d="M 187.589844 -0.0898438 C 84.042969 -0.0898438 0.0898438 83.863281 0.0898438 187.410156 L 0.0898438 562.410156 C 0.0898438 665.957031 84.042969 749.910156 187.589844 749.910156 L 562.589844 749.910156 C 666.136719 749.910156 750.089844 665.957031 750.089844 562.410156 L 750.089844 187.410156 C 750.089844 83.863281 666.136719 -0.0898438 562.589844 -0.0898438 Z M 187.589844 -0.0898438 " fill-opacity="1" fill-rule="nonzero"/><g clip-path="url(#752bf29cbc)"><path fill="#00d8ff" d="M 557.464844 286.289062 C 551.429688 284.21875 545.347656 282.300781 539.222656 280.539062 C 540.25 276.332031 541.199219 272.175781 542.039062 268.09375 C 555.847656 201.058594 546.820312 147.054688 515.984375 129.273438 C 486.417969 112.226562 438.0625 130 389.230469 172.5 C 384.417969 176.695312 379.710938 181.011719 375.117188 185.445312 C 372.039062 182.496094 368.910156 179.605469 365.726562 176.773438 C 314.546875 131.335938 263.246094 112.183594 232.441406 130.015625 C 202.902344 147.113281 194.15625 197.882812 206.589844 261.414062 C 207.824219 267.707031 209.222656 273.964844 210.777344 280.1875 C 203.515625 282.25 196.507812 284.445312 189.804688 286.785156 C 129.796875 307.703125 91.480469 340.488281 91.480469 374.492188 C 91.480469 409.613281 132.617188 444.84375 195.113281 466.203125 C 200.183594 467.929688 205.289062 469.527344 210.4375 470.996094 C 208.765625 477.695312 207.28125 484.441406 205.988281 491.226562 C 194.132812 553.652344 203.390625 603.222656 232.851562 620.214844 C 263.277344 637.761719 314.347656 619.726562 364.074219 576.257812 C 368.105469 572.726562 372.050781 569.089844 375.898438 565.359375 C 380.875 570.160156 385.984375 574.820312 391.21875 579.339844 C 439.390625 620.785156 486.960938 637.519531 516.394531 620.484375 C 546.792969 602.886719 556.671875 549.636719 543.84375 484.851562 C 542.835938 479.773438 541.703125 474.722656 540.449219 469.703125 C 544.035156 468.640625 547.554688 467.546875 550.984375 466.410156 C 615.957031 444.882812 658.230469 410.085938 658.230469 374.492188 C 658.230469 340.363281 618.675781 307.359375 557.464844 286.289062 Z M 543.371094 443.429688 C 540.273438 444.457031 537.09375 445.445312 533.851562 446.40625 C 526.679688 423.699219 517 399.558594 505.152344 374.609375 C 516.457031 350.257812 525.765625 326.421875 532.734375 303.863281 C 538.535156 305.542969 544.160156 307.3125 549.582031 309.179688 C 602.03125 327.234375 634.019531 353.925781 634.019531 374.492188 C 634.019531 396.402344 599.472656 424.839844 543.371094 443.429688 Z M 520.09375 489.550781 C 525.765625 518.199219 526.574219 544.097656 522.816406 564.347656 C 519.445312 582.542969 512.65625 594.671875 504.261719 599.53125 C 486.402344 609.871094 448.207031 596.433594 407.011719 560.984375 C 402.140625 556.789062 397.390625 552.453125 392.761719 547.992188 C 408.730469 530.527344 424.691406 510.222656 440.269531 487.675781 C 467.667969 485.242188 493.550781 481.269531 517.027344 475.84375 C 518.15625 480.386719 519.179688 484.957031 520.09375 489.550781 Z M 284.695312 597.746094 C 267.246094 603.90625 253.347656 604.082031 244.949219 599.238281 C 227.070312 588.929688 219.636719 549.128906 229.777344 495.742188 C 230.980469 489.433594 232.359375 483.160156 233.914062 476.925781 C 257.128906 482.0625 282.824219 485.753906 310.289062 487.980469 C 325.96875 510.046875 342.390625 530.328125 358.941406 548.085938 C 355.421875 551.488281 351.824219 554.804688 348.144531 558.03125 C 326.152344 577.25 304.117188 590.886719 284.695312 597.746094 Z M 202.949219 443.296875 C 175.3125 433.847656 152.488281 421.574219 136.84375 408.179688 C 122.789062 396.140625 115.691406 384.191406 115.691406 374.492188 C 115.691406 353.855469 146.457031 327.535156 197.773438 309.644531 C 204 307.476562 210.519531 305.429688 217.28125 303.507812 C 224.375 326.574219 233.679688 350.691406 244.90625 375.082031 C 233.53125 399.832031 224.097656 424.335938 216.933594 447.675781 C 212.238281 446.332031 207.574219 444.871094 202.949219 443.296875 Z M 230.351562 256.761719 C 219.699219 202.332031 226.773438 161.273438 244.574219 150.96875 C 263.535156 139.992188 305.460938 155.640625 349.652344 194.878906 C 352.535156 197.441406 355.371094 200.058594 358.15625 202.726562 C 341.6875 220.40625 325.417969 240.539062 309.875 262.472656 C 283.222656 264.941406 257.707031 268.910156 234.246094 274.226562 C 232.800781 268.4375 231.503906 262.617188 230.351562 256.765625 Z M 474.824219 317.128906 C 469.28125 307.558594 463.535156 298.109375 457.589844 288.785156 C 475.671875 291.070312 492.996094 294.105469 509.265625 297.816406 C 504.382812 313.472656 498.292969 329.839844 491.128906 346.621094 C 485.890625 336.679688 480.453125 326.847656 474.824219 317.128906 Z M 375.128906 220.027344 C 386.292969 232.128906 397.480469 245.632812 408.480469 260.289062 C 386.164062 259.234375 363.8125 259.230469 341.496094 260.277344 C 352.507812 245.757812 363.785156 232.265625 375.128906 220.027344 Z M 274.792969 317.292969 C 269.230469 326.9375 263.898438 336.707031 258.792969 346.597656 C 251.742188 329.878906 245.710938 313.4375 240.785156 297.558594 C 256.957031 293.941406 274.199219 290.984375 292.167969 288.742188 C 286.152344 298.121094 280.359375 307.640625 274.792969 317.292969 Z M 292.683594 461.96875 C 274.121094 459.898438 256.617188 457.089844 240.449219 453.570312 C 245.453125 437.410156 251.621094 420.621094 258.820312 403.539062 C 263.945312 413.441406 269.304688 423.214844 274.886719 432.863281 C 280.628906 442.78125 286.578125 452.496094 292.683594 461.96875 Z M 375.796875 530.660156 C 364.320312 518.28125 352.875 504.585938 341.695312 489.855469 C 352.546875 490.28125 363.609375 490.496094 374.855469 490.496094 C 386.40625 490.496094 397.828125 490.238281 409.066406 489.738281 C 398.03125 504.734375 386.886719 518.449219 375.796875 530.660156 Z M 491.355469 402.667969 C 498.933594 419.9375 505.316406 436.636719 510.386719 452.523438 C 493.957031 456.273438 476.214844 459.292969 457.519531 461.535156 C 463.511719 452.039062 469.3125 442.425781 474.917969 432.699219 C 480.621094 422.8125 486.101562 412.796875 491.355469 402.667969 Z M 453.945312 420.601562 C 445.363281 435.515625 436.292969 450.144531 426.757812 464.46875 C 409.484375 465.691406 392.171875 466.300781 374.855469 466.289062 C 357.21875 466.289062 340.0625 465.742188 323.542969 464.667969 C 313.757812 450.378906 304.515625 435.722656 295.839844 420.734375 L 295.84375 420.734375 C 287.207031 405.824219 279.140625 390.59375 271.660156 375.070312 C 279.121094 359.546875 287.164062 344.304688 295.769531 329.386719 L 295.765625 329.386719 C 304.371094 314.464844 313.535156 299.871094 323.246094 285.640625 C 340.101562 284.367188 357.386719 283.703125 374.851562 283.703125 L 374.855469 283.703125 C 392.402344 283.703125 409.707031 284.371094 426.558594 285.65625 C 436.171875 299.863281 445.28125 314.40625 453.867188 329.257812 C 462.5 344.144531 470.648438 359.308594 478.300781 374.726562 C 470.730469 390.304688 462.605469 405.605469 453.945312 420.601562 Z M 503.890625 150.246094 C 522.871094 161.191406 530.25 205.328125 518.328125 263.207031 C 517.566406 266.898438 516.710938 270.660156 515.78125 274.476562 C 492.265625 269.046875 466.730469 265.011719 440 262.503906 C 424.425781 240.328125 408.289062 220.167969 392.089844 202.714844 C 396.335938 198.621094 400.683594 194.636719 405.125 190.757812 C 446.96875 154.347656 486.074219 139.972656 503.890625 150.246094 Z M 374.855469 323.886719 C 402.804688 323.886719 425.464844 346.542969 425.464844 374.492188 C 425.464844 402.441406 402.804688 425.101562 374.855469 425.101562 C 346.90625 425.101562 324.246094 402.441406 324.246094 374.492188 C 324.246094 346.542969 346.90625 323.886719 374.855469 323.886719 Z M 374.855469 323.886719 " fill-opacity="1" fill-rule="nonzero"/></g></svg>