<svg xmlns="http://www.w3.org/2000/svg" xmlns:xlink="http://www.w3.org/1999/xlink" width="2000" zoomAndPan="magnify" viewBox="0 0 1500 675.000002" height="900" preserveAspectRatio="xMidYMid meet" version="1.0"><defs><clipPath id="0bf36518af"><path d="M 24.75 0 L 698.75 0 L 698.75 674 L 24.75 674 Z M 24.75 0 " clip-rule="nonzero"/></clipPath><clipPath id="8d61093314"><path d="M 788.398438 0 L 1462.398438 0 L 1462.398438 674 L 788.398438 674 Z M 788.398438 0 " clip-rule="nonzero"/></clipPath><clipPath id="9460e5a6c1"><path d="M 137.082031 202.199219 L 586.417969 202.199219 L 586.417969 471.800781 L 137.082031 471.800781 Z M 137.082031 202.199219 " clip-rule="nonzero"/></clipPath><clipPath id="c33a1e60f8"><path d="M 361.75 202.199219 C 301.839844 202.199219 264.394531 232.15625 249.417969 292.066406 C 271.882812 262.109375 298.09375 250.878906 328.050781 258.367188 C 345.140625 262.640625 357.355469 275.039062 370.878906 288.765625 C 392.90625 311.125 418.398438 337 474.082031 337 C 533.996094 337 571.4375 307.042969 586.417969 247.132812 C 563.949219 277.089844 537.738281 288.324219 507.785156 280.832031 C 490.695312 276.5625 478.476562 264.160156 464.957031 250.4375 C 442.925781 228.078125 417.433594 202.199219 361.75 202.199219 Z M 249.417969 337 C 189.507812 337 152.058594 366.957031 137.082031 426.867188 C 159.550781 396.910156 185.761719 385.679688 215.714844 393.167969 C 232.808594 397.441406 245.023438 409.839844 258.546875 423.5625 C 280.574219 445.925781 306.066406 471.800781 361.75 471.800781 C 421.660156 471.800781 459.105469 441.84375 474.082031 381.933594 C 451.617188 411.890625 425.40625 423.125 395.449219 415.632812 C 378.359375 411.363281 366.144531 398.960938 352.621094 385.238281 C 330.59375 362.878906 305.101562 337 249.417969 337 Z M 249.417969 337 " clip-rule="nonzero"/></clipPath><linearGradient x1="-13.502167" gradientTransform="matrix(2.995562, 0, 0, 2.995562, 137.082934, 202.200464)" y1="23.417482" x2="138.017671" gradientUnits="userSpaceOnUse" y2="110.781537" id="b97193b8e5"><stop stop-opacity="1" stop-color="rgb(13.299561%, 59.599304%, 74.099731%)" offset="0"/><stop stop-opacity="1" stop-color="rgb(13.294983%, 59.611511%, 74.098206%)" offset="0.0625"/><stop stop-opacity="1" stop-color="rgb(13.25531%, 59.738159%, 74.081421%)" offset="0.0703125"/><stop stop-opacity="1" stop-color="rgb(13.183594%, 59.963989%, 74.052429%)" offset="0.078125"/><stop stop-opacity="1" stop-color="rgb(13.111877%, 60.189819%, 74.024963%)" offset="0.0859375"/><stop stop-opacity="1" stop-color="rgb(13.041687%, 60.414124%, 73.995972%)" offset="0.09375"/><stop stop-opacity="1" stop-color="rgb(12.969971%, 60.639954%, 73.968506%)" offset="0.101562"/><stop stop-opacity="1" stop-color="rgb(12.898254%, 60.865784%, 73.939514%)" offset="0.109375"/><stop stop-opacity="1" stop-color="rgb(12.828064%, 61.091614%, 73.912048%)" offset="0.117187"/><stop stop-opacity="1" stop-color="rgb(12.756348%, 61.317444%, 73.883057%)" offset="0.125"/><stop stop-opacity="1" stop-color="rgb(12.684631%, 61.543274%, 73.854065%)" offset="0.132812"/><stop stop-opacity="1" stop-color="rgb(12.612915%, 61.769104%, 73.826599%)" offset="0.140625"/><stop stop-opacity="1" stop-color="rgb(12.542725%, 61.994934%, 73.797607%)" offset="0.148437"/><stop stop-opacity="1" stop-color="rgb(12.471008%, 62.220764%, 73.770142%)" offset="0.15625"/><stop stop-opacity="1" stop-color="rgb(12.399292%, 62.446594%, 73.74115%)" offset="0.164062"/><stop stop-opacity="1" stop-color="rgb(12.329102%, 62.672424%, 73.713684%)" offset="0.171875"/><stop stop-opacity="1" stop-color="rgb(12.257385%, 62.896729%, 73.684692%)" offset="0.179688"/><stop stop-opacity="1" stop-color="rgb(12.185669%, 63.122559%, 73.657227%)" offset="0.1875"/><stop stop-opacity="1" stop-color="rgb(12.113953%, 63.348389%, 73.628235%)" offset="0.195312"/><stop stop-opacity="1" stop-color="rgb(12.043762%, 63.574219%, 73.599243%)" offset="0.203125"/><stop stop-opacity="1" stop-color="rgb(11.972046%, 63.800049%, 73.571777%)" offset="0.210938"/><stop stop-opacity="1" stop-color="rgb(11.90033%, 64.025879%, 73.542786%)" offset="0.21875"/><stop stop-opacity="1" stop-color="rgb(11.830139%, 64.251709%, 73.51532%)" offset="0.226562"/><stop stop-opacity="1" stop-color="rgb(11.758423%, 64.477539%, 73.486328%)" offset="0.234375"/><stop stop-opacity="1" stop-color="rgb(11.686707%, 64.703369%, 73.458862%)" offset="0.242188"/><stop stop-opacity="1" stop-color="rgb(11.61499%, 64.929199%, 73.429871%)" offset="0.25"/><stop stop-opacity="1" stop-color="rgb(11.5448%, 65.155029%, 73.400879%)" offset="0.257031"/><stop stop-opacity="1" stop-color="rgb(11.509705%, 65.267944%, 73.387146%)" offset="0.257812"/><stop stop-opacity="1" stop-color="rgb(11.473083%, 65.380859%, 73.373413%)" offset="0.265625"/><stop stop-opacity="1" stop-color="rgb(11.401367%, 65.605164%, 73.344421%)" offset="0.273437"/><stop stop-opacity="1" stop-color="rgb(11.331177%, 65.830994%, 73.316956%)" offset="0.28125"/><stop stop-opacity="1" stop-color="rgb(11.25946%, 66.056824%, 73.287964%)" offset="0.289062"/><stop stop-opacity="1" stop-color="rgb(11.187744%, 66.282654%, 73.260498%)" offset="0.296875"/><stop stop-opacity="1" stop-color="rgb(11.116028%, 66.508484%, 73.231506%)" offset="0.304687"/><stop stop-opacity="1" stop-color="rgb(11.045837%, 66.734314%, 73.204041%)" offset="0.3125"/><stop stop-opacity="1" stop-color="rgb(10.974121%, 66.960144%, 73.175049%)" offset="0.320312"/><stop stop-opacity="1" stop-color="rgb(10.902405%, 67.185974%, 73.146057%)" offset="0.328125"/><stop stop-opacity="1" stop-color="rgb(10.832214%, 67.411804%, 73.118591%)" offset="0.335937"/><stop stop-opacity="1" stop-color="rgb(10.760498%, 67.637634%, 73.0896%)" offset="0.34375"/><stop stop-opacity="1" stop-color="rgb(10.688782%, 67.863464%, 73.062134%)" offset="0.351562"/><stop stop-opacity="1" stop-color="rgb(10.618591%, 68.087769%, 73.033142%)" offset="0.359375"/><stop stop-opacity="1" stop-color="rgb(10.546875%, 68.313599%, 73.005676%)" offset="0.367188"/><stop stop-opacity="1" stop-color="rgb(10.475159%, 68.539429%, 72.976685%)" offset="0.375"/><stop stop-opacity="1" stop-color="rgb(10.403442%, 68.765259%, 72.947693%)" offset="0.382812"/><stop stop-opacity="1" stop-color="rgb(10.333252%, 68.991089%, 72.920227%)" offset="0.390625"/><stop stop-opacity="1" stop-color="rgb(10.261536%, 69.216919%, 72.891235%)" offset="0.398437"/><stop stop-opacity="1" stop-color="rgb(10.189819%, 69.442749%, 72.86377%)" offset="0.40625"/><stop stop-opacity="1" stop-color="rgb(10.119629%, 69.668579%, 72.834778%)" offset="0.414062"/><stop stop-opacity="1" stop-color="rgb(10.047913%, 69.894409%, 72.807312%)" offset="0.421875"/><stop stop-opacity="1" stop-color="rgb(9.976196%, 70.120239%, 72.77832%)" offset="0.429687"/><stop stop-opacity="1" stop-color="rgb(9.90448%, 70.346069%, 72.749329%)" offset="0.4375"/><stop stop-opacity="1" stop-color="rgb(9.83429%, 70.570374%, 72.721863%)" offset="0.445312"/><stop stop-opacity="1" stop-color="rgb(9.762573%, 70.796204%, 72.692871%)" offset="0.453125"/><stop stop-opacity="1" stop-color="rgb(9.690857%, 71.022034%, 72.665405%)" offset="0.460937"/><stop stop-opacity="1" stop-color="rgb(9.620667%, 71.247864%, 72.636414%)" offset="0.46875"/><stop stop-opacity="1" stop-color="rgb(9.54895%, 71.473694%, 72.608948%)" offset="0.476562"/><stop stop-opacity="1" stop-color="rgb(9.477234%, 71.699524%, 72.579956%)" offset="0.484375"/><stop stop-opacity="1" stop-color="rgb(9.405518%, 71.925354%, 72.55249%)" offset="0.492188"/><stop stop-opacity="1" stop-color="rgb(9.335327%, 72.151184%, 72.523499%)" offset="0.5"/><stop stop-opacity="1" stop-color="rgb(9.263611%, 72.377014%, 72.494507%)" offset="0.507812"/><stop stop-opacity="1" stop-color="rgb(9.191895%, 72.602844%, 72.467041%)" offset="0.515625"/><stop stop-opacity="1" stop-color="rgb(9.121704%, 72.828674%, 72.438049%)" offset="0.523437"/><stop stop-opacity="1" stop-color="rgb(9.049988%, 73.054504%, 72.410583%)" offset="0.53125"/><stop stop-opacity="1" stop-color="rgb(8.978271%, 73.278809%, 72.381592%)" offset="0.539062"/><stop stop-opacity="1" stop-color="rgb(8.908081%, 73.504639%, 72.354126%)" offset="0.546875"/><stop stop-opacity="1" stop-color="rgb(8.836365%, 73.730469%, 72.325134%)" offset="0.554687"/><stop stop-opacity="1" stop-color="rgb(8.764648%, 73.956299%, 72.296143%)" offset="0.5625"/><stop stop-opacity="1" stop-color="rgb(8.692932%, 74.182129%, 72.268677%)" offset="0.570312"/><stop stop-opacity="1" stop-color="rgb(8.622742%, 74.407959%, 72.239685%)" offset="0.578125"/><stop stop-opacity="1" stop-color="rgb(8.551025%, 74.633789%, 72.212219%)" offset="0.585937"/><stop stop-opacity="1" stop-color="rgb(8.479309%, 74.859619%, 72.183228%)" offset="0.59375"/><stop stop-opacity="1" stop-color="rgb(8.409119%, 75.085449%, 72.155762%)" offset="0.601562"/><stop stop-opacity="1" stop-color="rgb(8.337402%, 75.311279%, 72.12677%)" offset="0.609375"/><stop stop-opacity="1" stop-color="rgb(8.265686%, 75.537109%, 72.099304%)" offset="0.617187"/><stop stop-opacity="1" stop-color="rgb(8.19397%, 75.761414%, 72.070312%)" offset="0.625"/><stop stop-opacity="1" stop-color="rgb(8.123779%, 75.987244%, 72.041321%)" offset="0.632812"/><stop stop-opacity="1" stop-color="rgb(8.052063%, 76.213074%, 72.013855%)" offset="0.640625"/><stop stop-opacity="1" stop-color="rgb(7.980347%, 76.438904%, 71.984863%)" offset="0.648437"/><stop stop-opacity="1" stop-color="rgb(7.910156%, 76.664734%, 71.957397%)" offset="0.65625"/><stop stop-opacity="1" stop-color="rgb(7.83844%, 76.890564%, 71.928406%)" offset="0.664062"/><stop stop-opacity="1" stop-color="rgb(7.766724%, 77.116394%, 71.90094%)" offset="0.671875"/><stop stop-opacity="1" stop-color="rgb(7.695007%, 77.342224%, 71.871948%)" offset="0.679687"/><stop stop-opacity="1" stop-color="rgb(7.624817%, 77.568054%, 71.842957%)" offset="0.6875"/><stop stop-opacity="1" stop-color="rgb(7.553101%, 77.793884%, 71.815491%)" offset="0.695312"/><stop stop-opacity="1" stop-color="rgb(7.481384%, 78.019714%, 71.786499%)" offset="0.703125"/><stop stop-opacity="1" stop-color="rgb(7.411194%, 78.244019%, 71.759033%)" offset="0.710937"/><stop stop-opacity="1" stop-color="rgb(7.339478%, 78.469849%, 71.730042%)" offset="0.71875"/><stop stop-opacity="1" stop-color="rgb(7.267761%, 78.695679%, 71.702576%)" offset="0.726562"/><stop stop-opacity="1" stop-color="rgb(7.196045%, 78.921509%, 71.673584%)" offset="0.734375"/><stop stop-opacity="1" stop-color="rgb(7.125854%, 79.147339%, 71.646118%)" offset="0.742187"/><stop stop-opacity="1" stop-color="rgb(7.054138%, 79.373169%, 71.617126%)" offset="0.742969"/><stop stop-opacity="1" stop-color="rgb(7.019043%, 79.486084%, 71.603394%)" offset="0.75"/><stop stop-opacity="1" stop-color="rgb(6.982422%, 79.598999%, 71.588135%)" offset="0.757812"/><stop stop-opacity="1" stop-color="rgb(6.912231%, 79.824829%, 71.560669%)" offset="0.765625"/><stop stop-opacity="1" stop-color="rgb(6.840515%, 80.050659%, 71.531677%)" offset="0.773437"/><stop stop-opacity="1" stop-color="rgb(6.768799%, 80.276489%, 71.504211%)" offset="0.78125"/><stop stop-opacity="1" stop-color="rgb(6.698608%, 80.502319%, 71.47522%)" offset="0.789062"/><stop stop-opacity="1" stop-color="rgb(6.626892%, 80.726624%, 71.447754%)" offset="0.796875"/><stop stop-opacity="1" stop-color="rgb(6.555176%, 80.952454%, 71.418762%)" offset="0.804687"/><stop stop-opacity="1" stop-color="rgb(6.483459%, 81.178284%, 71.389771%)" offset="0.8125"/><stop stop-opacity="1" stop-color="rgb(6.413269%, 81.404114%, 71.362305%)" offset="0.820312"/><stop stop-opacity="1" stop-color="rgb(6.341553%, 81.629944%, 71.333313%)" offset="0.828125"/><stop stop-opacity="1" stop-color="rgb(6.269836%, 81.855774%, 71.305847%)" offset="0.835937"/><stop stop-opacity="1" stop-color="rgb(6.199646%, 82.081604%, 71.276855%)" offset="0.84375"/><stop stop-opacity="1" stop-color="rgb(6.12793%, 82.307434%, 71.24939%)" offset="0.851562"/><stop stop-opacity="1" stop-color="rgb(6.056213%, 82.533264%, 71.220398%)" offset="0.859375"/><stop stop-opacity="1" stop-color="rgb(5.984497%, 82.759094%, 71.191406%)" offset="0.867187"/><stop stop-opacity="1" stop-color="rgb(5.914307%, 82.984924%, 71.16394%)" offset="0.875"/><stop stop-opacity="1" stop-color="rgb(5.84259%, 83.210754%, 71.134949%)" offset="0.882812"/><stop stop-opacity="1" stop-color="rgb(5.770874%, 83.435059%, 71.107483%)" offset="0.890625"/><stop stop-opacity="1" stop-color="rgb(5.700684%, 83.660889%, 71.078491%)" offset="0.898437"/><stop stop-opacity="1" stop-color="rgb(5.628967%, 83.886719%, 71.051025%)" offset="0.90625"/><stop stop-opacity="1" stop-color="rgb(5.54657%, 84.14917%, 71.017456%)" offset="0.9375"/><stop stop-opacity="1" stop-color="rgb(5.499268%, 84.298706%, 70.999146%)" offset="1"/></linearGradient><clipPath id="aed0ed69f0"><path d="M 858.75 124.652344 L 1391.960938 124.652344 L 1391.960938 549.273438 L 858.75 549.273438 Z M 858.75 124.652344 " clip-rule="nonzero"/></clipPath></defs><g clip-path="url(#0bf36518af)"><path fill="#001e2b" d="M 193.332031 -0.0820312 C 100.277344 -0.0820312 24.832031 75.363281 24.832031 168.417969 L 24.832031 505.417969 C 24.832031 598.472656 100.277344 673.917969 193.332031 673.917969 L 530.332031 673.917969 C 623.386719 673.917969 698.832031 598.472656 698.832031 505.417969 L 698.832031 168.417969 C 698.832031 75.363281 623.386719 -0.0820312 530.332031 -0.0820312 Z M 193.332031 -0.0820312 " fill-opacity="1" fill-rule="nonzero"/></g><g clip-path="url(#8d61093314)"><path fill="#8a12fc" d="M 956.980469 -0.0820312 C 863.925781 -0.0820312 788.480469 75.363281 788.480469 168.417969 L 788.480469 505.417969 C 788.480469 598.472656 863.925781 673.917969 956.980469 673.917969 L 1293.980469 673.917969 C 1387.035156 673.917969 1462.480469 598.472656 1462.480469 505.417969 L 1462.480469 168.417969 C 1462.480469 75.363281 1387.035156 -0.0820312 1293.980469 -0.0820312 Z M 956.980469 -0.0820312 " fill-opacity="1" fill-rule="nonzero"/></g><g clip-path="url(#9460e5a6c1)"><g clip-path="url(#c33a1e60f8)"><path fill="url(#b97193b8e5)" d="M 137.082031 202.199219 L 137.082031 471.800781 L 586.417969 471.800781 L 586.417969 202.199219 Z M 137.082031 202.199219 " fill-rule="nonzero"/></g></g><g clip-path="url(#aed0ed69f0)"><path fill="#ffffff" d="M 969.550781 124.652344 C 939.136719 124.652344 916.628906 151.273438 917.636719 180.140625 C 918.605469 207.878906 917.347656 243.796875 908.304688 273.09375 C 899.234375 302.472656 883.894531 321.082031 858.835938 323.472656 L 858.835938 350.449219 C 883.894531 352.839844 899.234375 371.449219 908.304688 400.832031 C 917.347656 430.125 918.605469 466.046875 917.636719 493.78125 C 916.628906 522.648438 939.136719 549.273438 969.554688 549.273438 L 1281.203125 549.273438 C 1311.617188 549.273438 1334.117188 522.652344 1333.109375 493.78125 C 1332.144531 466.046875 1333.398438 430.125 1342.445312 400.832031 C 1351.519531 371.449219 1366.820312 352.839844 1391.875 350.449219 L 1391.875 323.472656 C 1366.820312 321.082031 1351.519531 302.472656 1342.445312 273.09375 C 1333.398438 243.804688 1332.144531 207.878906 1333.109375 180.140625 C 1334.117188 151.277344 1311.617188 124.652344 1281.203125 124.652344 L 969.546875 124.652344 Z M 1220.21875 386.03125 C 1220.21875 425.785156 1190.566406 449.894531 1141.359375 449.894531 L 1057.597656 449.894531 C 1057.003906 449.894531 1056.414062 449.835938 1055.832031 449.71875 C 1055.253906 449.605469 1054.6875 449.433594 1054.140625 449.207031 C 1053.589844 448.976562 1053.070312 448.699219 1052.578125 448.371094 C 1052.082031 448.039062 1051.628906 447.667969 1051.207031 447.246094 C 1050.789062 446.828125 1050.414062 446.371094 1050.085938 445.878906 C 1049.753906 445.382812 1049.476562 444.863281 1049.25 444.316406 C 1049.023438 443.769531 1048.851562 443.203125 1048.734375 442.621094 C 1048.621094 442.039062 1048.5625 441.453125 1048.5625 440.859375 L 1048.5625 233.066406 C 1048.5625 232.472656 1048.621094 231.882812 1048.734375 231.304688 C 1048.851562 230.722656 1049.023438 230.15625 1049.25 229.609375 C 1049.476562 229.058594 1049.753906 228.539062 1050.085938 228.046875 C 1050.414062 227.554688 1050.789062 227.097656 1051.207031 226.675781 C 1051.628906 226.257812 1052.082031 225.882812 1052.578125 225.554688 C 1053.070312 225.222656 1053.589844 224.945312 1054.140625 224.71875 C 1054.6875 224.492188 1055.253906 224.320312 1055.832031 224.203125 C 1056.414062 224.089844 1057.003906 224.03125 1057.597656 224.03125 L 1140.882812 224.03125 C 1181.914062 224.03125 1208.839844 246.253906 1208.839844 280.378906 C 1208.839844 304.328125 1190.726562 325.773438 1167.648438 329.527344 L 1167.648438 330.777344 C 1199.066406 334.222656 1220.21875 355.980469 1220.21875 386.03125 Z M 1132.226562 252.671875 L 1084.464844 252.671875 L 1084.464844 320.128906 L 1124.691406 320.128906 C 1155.789062 320.128906 1172.9375 307.609375 1172.9375 285.226562 C 1172.9375 264.253906 1158.191406 252.671875 1132.226562 252.671875 Z M 1084.464844 346.898438 L 1084.464844 421.246094 L 1133.984375 421.246094 C 1166.359375 421.246094 1183.511719 408.253906 1183.511719 383.835938 C 1183.511719 359.417969 1165.878906 346.894531 1131.902344 346.894531 L 1084.464844 346.894531 Z M 1084.464844 346.898438 " fill-opacity="1" fill-rule="evenodd"/></g></svg>