<svg xmlns="http://www.w3.org/2000/svg" xmlns:xlink="http://www.w3.org/1999/xlink" width="500" zoomAndPan="magnify" viewBox="0 0 375 374.999991" height="500" preserveAspectRatio="xMidYMid meet" version="1.0"><defs><clipPath id="5b1c10e86b"><path d="M 55 37.5 L 319 37.5 L 319 337.5 L 55 337.5 Z M 55 37.5 " clip-rule="nonzero"/></clipPath></defs><path fill="#2d1826" d="M 93.796875 -0.046875 C 42.023438 -0.046875 0.046875 41.929688 0.046875 93.703125 L 0.046875 281.203125 C 0.046875 332.976562 42.023438 374.953125 93.796875 374.953125 L 281.296875 374.953125 C 333.070312 374.953125 375.046875 332.976562 375.046875 281.203125 L 375.046875 93.703125 C 375.046875 41.929688 333.070312 -0.046875 281.296875 -0.046875 Z M 93.796875 -0.046875 " fill-opacity="1" fill-rule="nonzero"/><g clip-path="url(#5b1c10e86b)"><path fill="#df34a6" d="M 95.085938 102.726562 C 82.488281 95.324219 66.386719 99.699219 59.113281 112.5 C 57.875 114.710938 56.9375 117.101562 56.363281 119.574219 C 52.960938 133.960938 61.664062 148.425781 75.789062 151.875 L 75.773438 223.113281 C 70.886719 224.324219 66.425781 226.9375 62.949219 230.648438 C 52.925781 241.335938 53.3125 258.273438 63.8125 268.476562 C 74.324219 278.6875 90.976562 278.273438 101 267.601562 L 161.664062 303.1875 C 160.9375 305.675781 160.574219 308.238281 160.574219 310.800781 C 160.585938 325.5625 172.363281 337.511719 186.875 337.5 C 189.675781 337.5 192.4375 337.039062 195.113281 336.148438 C 208.914062 331.511719 216.414062 316.375 211.835938 302.324219 L 272.113281 266.925781 C 273.976562 269.050781 276.175781 270.875 278.574219 272.289062 C 291.1875 279.6875 307.273438 275.300781 314.550781 262.511719 C 315.835938 260.25 316.8125 257.800781 317.398438 255.25 C 320.761719 240.925781 312.0625 226.550781 297.988281 223.136719 L 297.988281 151.898438 C 300.414062 151.300781 302.710938 150.363281 304.851562 149.113281 C 317.488281 141.75 321.875 125.363281 314.625 112.511719 C 313.363281 110.3125 311.8125 108.300781 309.988281 106.550781 C 299.4375 96.351562 282.75 96.773438 272.726562 107.511719 L 212.074219 71.886719 C 212.800781 69.398438 213.1875 66.789062 213.175781 64.175781 C 213.164062 49.425781 201.386719 37.488281 186.875 37.5 C 184.335938 37.5 181.800781 37.863281 179.375 38.601562 C 165.488281 42.789062 157.539062 57.648438 161.664062 71.8125 L 100.976562 107.4375 C 99.25 105.574219 97.261719 103.988281 95.085938 102.726562 Z M 206.324219 292.761719 C 201.5 287.398438 194.574219 284.039062 186.875 284.039062 C 179.425781 284.039062 172.710938 287.148438 167.949219 292.199219 L 107.25 256.550781 L 107.511719 255.511719 L 266.238281 255.511719 C 266.375 256.113281 266.523438 256.699219 266.699219 257.289062 Z M 205.75 82.851562 L 266.539062 118.574219 C 266.449219 118.863281 266.375 119.175781 266.300781 119.476562 C 262.8125 133.800781 271.375 148.289062 285.449219 151.824219 L 285.449219 223.164062 C 285.125 223.25 284.761719 223.335938 284.4375 223.449219 L 205.039062 83.574219 C 205.300781 83.335938 205.523438 83.113281 205.75 82.851562 Z M 179.5625 89.925781 C 184.335938 91.324219 189.414062 91.324219 194.210938 89.925781 L 273.625 229.75 C 269.988281 233.289062 267.414062 237.824219 266.210938 242.800781 L 107.550781 242.800781 C 106.351562 237.851562 103.789062 233.324219 100.175781 229.789062 Z M 107.175781 118.488281 L 167.960938 82.835938 L 168.699219 83.585938 L 89.324219 223.449219 L 88.289062 223.164062 L 88.289062 151.8125 C 88.601562 151.726562 88.898438 151.648438 89.226562 151.550781 C 103.164062 147.460938 111.199219 132.675781 107.175781 118.488281 Z M 107.175781 118.488281 " fill-opacity="1" fill-rule="nonzero"/></g></svg>