<svg xmlns="http://www.w3.org/2000/svg" xmlns:xlink="http://www.w3.org/1999/xlink" width="500" zoomAndPan="magnify" viewBox="0 0 375 374.999991" height="500" preserveAspectRatio="xMidYMid meet" version="1.0"><defs><clipPath id="a5450d52e8"><path d="M 96.5625 172 L 205 172 L 205 350 L 96.5625 350 Z M 96.5625 172 " clip-rule="nonzero"/></clipPath></defs><path fill="#ffd600" d="M 93.796875 -0.046875 C 42.023438 -0.046875 0.046875 41.929688 0.046875 93.703125 L 0.046875 281.203125 C 0.046875 332.976562 42.023438 374.953125 93.796875 374.953125 L 281.296875 374.953125 C 333.070312 374.953125 375.046875 332.976562 375.046875 281.203125 L 375.046875 93.703125 C 375.046875 41.929688 333.070312 -0.046875 281.296875 -0.046875 Z M 93.796875 -0.046875 " fill-opacity="1" fill-rule="nonzero"/><path fill="#ffffff" d="M 311.496094 293.277344 C 307.429688 277.957031 275.617188 274.386719 253.859375 258.128906 C 231.859375 243.304688 226.617188 207.441406 244.789062 186.863281 C 251.003906 179.210938 261.269531 173.472656 272.042969 170.84375 L 283.28125 169.425781 C 305.039062 168.929688 318.414062 174.667969 328.457031 185.90625 C 331.355469 188.757812 333.492188 191.644531 337.796875 198.339844 C 326.304688 205.496094 326.304688 205.496094 309.820312 216.273438 C 306.21875 208.621094 300.480469 203.839844 294.265625 201.925781 C 284.699219 199.058594 272.507812 202.148438 270.117188 212.445312 C 269.175781 215.554688 269.398438 218.421875 270.847656 223.683594 C 274.722656 232.53125 287.761719 236.355469 299.492188 241.855469 C 333.207031 255.53125 344.570312 270.195312 347.359375 287.648438 L 346.625 286.582031 C 349.273438 301.644531 345.910156 311.449219 345.449219 312.882812 C 333 355.441406 263.660156 356.875 235.925781 328.886719 C 230.1875 322.191406 226.363281 318.859375 223.015625 311.207031 L 252.183594 294.457031 C 260.074219 306.410156 267.230469 312.882812 280.160156 315.75 C 297.628906 317.902344 315.320312 311.925781 311.496094 293.277344 Z M 311.496094 293.277344 " fill-opacity="1" fill-rule="nonzero"/><g clip-path="url(#a5450d52e8)"><path fill="#ffffff" d="M 125.78125 298.808594 C 126.054688 298.808594 126.800781 300.257812 127.804688 301.933594 C 131.519531 308.132812 134.722656 312.4375 141.035156 315.558594 C 147.1875 317.488281 160.738281 318.890625 165.996094 307.910156 C 169.203125 302.363281 168.199219 284.335938 168.199219 264.695312 C 168.199219 233.757812 168.339844 203.058594 168.339844 172.167969 L 204.171875 172.167969 L 204.109375 173.058594 C 204.109375 206.054688 204.300781 238.808594 204.109375 271.550781 C 204.191406 291.890625 205.910156 310.0625 197.78125 324.886719 C 192.15625 336.363281 181.394531 343.773438 168.914062 347.375 C 149.738281 351.679688 131.425781 349.050781 117.796875 340.921875 C 108.648438 335.421875 101.554688 326.78125 96.691406 316.738281 Z M 125.78125 298.808594 " fill-opacity="1" fill-rule="nonzero"/></g></svg>