<svg xmlns="http://www.w3.org/2000/svg" xmlns:xlink="http://www.w3.org/1999/xlink" width="500" zoomAndPan="magnify" viewBox="0 0 375 374.999991" height="500" preserveAspectRatio="xMidYMid meet" version="1.0"><defs><clipPath id="5bd791774c"><path d="M 109 19.195312 L 266 19.195312 L 266 355.945312 L 109 355.945312 Z M 109 19.195312 " clip-rule="nonzero"/></clipPath></defs><path fill="#002e13" d="M 93.796875 -0.046875 C 42.023438 -0.046875 0.046875 41.929688 0.046875 93.703125 L 0.046875 281.203125 C 0.046875 332.976562 42.023438 374.953125 93.796875 374.953125 L 281.296875 374.953125 C 333.070312 374.953125 375.046875 332.976562 375.046875 281.203125 L 375.046875 93.703125 C 375.046875 41.929688 333.070312 -0.046875 281.296875 -0.046875 Z M 93.796875 -0.046875 " fill-opacity="1" fill-rule="nonzero"/><g clip-path="url(#5bd791774c)"><path fill="#01ec64" d="M 216.570312 57.261719 C 202.492188 40.554688 190.375 23.585938 187.898438 20.0625 C 187.839844 20 187.765625 19.949219 187.6875 19.917969 C 187.609375 19.882812 187.527344 19.867188 187.441406 19.867188 C 187.355469 19.867188 187.269531 19.882812 187.191406 19.917969 C 187.113281 19.949219 187.042969 20 186.984375 20.0625 C 184.507812 23.585938 172.386719 40.554688 158.3125 57.261719 C 37.496094 211.414062 177.339844 315.445312 177.339844 315.445312 L 178.511719 316.230469 C 179.554688 332.285156 182.164062 355.390625 182.164062 355.390625 L 192.589844 355.390625 C 192.589844 355.390625 195.195312 332.414062 196.238281 316.230469 L 197.410156 315.316406 C 197.542969 315.449219 337.382812 211.417969 216.570312 57.261719 Z M 187.375 313.097656 C 187.375 313.097656 181.121094 307.746094 179.425781 305.003906 L 179.425781 304.742188 L 186.984375 136.882812 C 186.984375 136.363281 187.765625 136.363281 187.765625 136.882812 L 195.324219 304.742188 L 195.324219 305.003906 C 193.632812 307.746094 187.375 313.097656 187.375 313.097656 Z M 187.375 313.097656 " fill-opacity="1" fill-rule="nonzero"/></g></svg>