<svg xmlns="http://www.w3.org/2000/svg" xmlns:xlink="http://www.w3.org/1999/xlink" width="500" zoomAndPan="magnify" viewBox="0 0 375 374.999991" height="500" preserveAspectRatio="xMidYMid meet" version="1.0"><path fill="#000000" d="M 93.796875 -0.046875 C 42.023438 -0.046875 0.046875 41.929688 0.046875 93.703125 L 0.046875 281.203125 C 0.046875 332.976562 42.023438 374.953125 93.796875 374.953125 L 281.296875 374.953125 C 333.070312 374.953125 375.046875 332.976562 375.046875 281.203125 L 375.046875 93.703125 C 375.046875 41.929688 333.070312 -0.046875 281.296875 -0.046875 Z M 93.796875 -0.046875 " fill-opacity="1" fill-rule="nonzero"/><path fill="#ffffff" d="M 239.804688 84.738281 C 159.640625 37.605469 57.78125 95.171875 56.894531 188.113281 C 56.03125 278.867188 152.074219 337.488281 232.054688 297.539062 L 144.730469 169.0625 L 144.730469 248.585938 C 144.730469 257.398438 127.867188 257.398438 127.867188 248.585938 L 127.867188 141.976562 C 127.867188 134.984375 140.863281 134.410156 144.542969 140.488281 L 244.078125 290.691406 C 318.847656 242.53125 317.839844 130.625 239.804688 84.738281 Z M 228.558594 235.246094 L 211.640625 209.410156 L 211.640625 138.679688 C 211.640625 132.085938 228.554688 132.085938 228.554688 138.679688 L 228.554688 235.246094 Z M 228.558594 235.246094 " fill-opacity="1" fill-rule="nonzero"/></svg>