<svg xmlns="http://www.w3.org/2000/svg" xmlns:xlink="http://www.w3.org/1999/xlink" width="500" zoomAndPan="magnify" viewBox="0 0 375 374.999991" height="500" preserveAspectRatio="xMidYMid meet" version="1.0"><defs><clipPath id="259023223b"><path d="M 0 75 L 0 300 C 0 341.421875 33.578125 375 75 375 L 300 375 C 341.421875 375 375 341.421875 375 300 L 375 75 C 375 33.578125 341.421875 0 300 0 L 75 0 C 33.578125 0 0 33.578125 0 75 Z M 0 75 " clip-rule="nonzero"/></clipPath></defs><g clip-path="url(#259023223b)"><path fill="#4f5b93" d="M 136.949219 182.101562 C 137.023438 182.886719 137.050781 183.671875 137.039062 184.460938 C 137.023438 185.25 136.964844 186.035156 136.863281 186.820312 C 136.757812 187.601562 136.613281 188.375 136.421875 189.140625 C 136.234375 189.90625 136.003906 190.660156 135.730469 191.402344 C 135.453125 192.140625 135.140625 192.863281 134.785156 193.570312 C 134.429688 194.273438 134.039062 194.957031 133.609375 195.617188 C 133.175781 196.277344 132.710938 196.914062 132.207031 197.523438 C 131.707031 198.132812 131.171875 198.710938 130.605469 199.257812 C 130.039062 199.808594 129.441406 200.324219 128.816406 200.804688 C 128.191406 201.289062 127.542969 201.734375 126.867188 202.144531 C 126.195312 202.554688 125.5 202.925781 124.78125 203.257812 C 124.066406 203.585938 123.335938 203.878906 122.585938 204.128906 C 121.835938 204.378906 121.078125 204.585938 120.304688 204.75 C 119.535156 204.914062 118.753906 205.035156 117.96875 205.113281 C 117.183594 205.191406 116.398438 205.222656 115.609375 205.214844 C 114.820312 205.203125 114.03125 205.148438 113.25 205.050781 L 101.101562 205.050781 C 103.5 193.050781 105.75 181.5 108 169.5 C 115.050781 169.5 121.648438 169.5 128.25 170.699219 C 128.929688 170.738281 129.597656 170.851562 130.253906 171.035156 C 130.910156 171.21875 131.539062 171.46875 132.140625 171.789062 C 132.742188 172.109375 133.300781 172.488281 133.820312 172.929688 C 134.339844 173.367188 134.804688 173.859375 135.21875 174.402344 C 135.632812 174.941406 135.984375 175.523438 136.269531 176.140625 C 136.558594 176.757812 136.777344 177.398438 136.925781 178.0625 C 137.074219 178.726562 137.152344 179.398438 137.15625 180.078125 C 137.160156 180.761719 137.089844 181.433594 136.949219 182.101562 Z M 271.949219 170.851562 C 265.199219 169.800781 258.148438 169.949219 251.25 169.5 C 248.851562 181.800781 246.75 193.050781 244.351562 205.050781 L 257.398438 205.050781 C 272.398438 205.050781 279.300781 197.851562 280.050781 181.050781 C 280.171875 180.4375 280.222656 179.816406 280.207031 179.191406 C 280.191406 178.566406 280.109375 177.949219 279.960938 177.34375 C 279.808594 176.734375 279.59375 176.152344 279.316406 175.589844 C 279.039062 175.03125 278.703125 174.507812 278.308594 174.023438 C 277.914062 173.535156 277.472656 173.097656 276.984375 172.707031 C 276.496094 172.320312 275.96875 171.988281 275.40625 171.714844 C 274.84375 171.4375 274.257812 171.230469 273.652344 171.082031 C 273.042969 170.9375 272.425781 170.859375 271.800781 170.851562 Z M 375.148438 34.050781 L 375.148438 340.949219 C 375.148438 342.066406 375.09375 343.175781 374.984375 344.289062 C 374.875 345.398438 374.714844 346.5 374.496094 347.59375 C 374.277344 348.6875 374.007812 349.765625 373.683594 350.835938 C 373.359375 351.902344 372.984375 352.949219 372.558594 353.980469 C 372.132812 355.011719 371.65625 356.015625 371.128906 357 C 370.605469 357.984375 370.03125 358.941406 369.410156 359.867188 C 368.792969 360.792969 368.128906 361.6875 367.421875 362.550781 C 366.714844 363.414062 365.964844 364.238281 365.175781 365.027344 C 364.386719 365.816406 363.5625 366.5625 362.699219 367.269531 C 361.839844 367.976562 360.945312 368.640625 360.015625 369.261719 C 359.089844 369.882812 358.132812 370.453125 357.152344 370.980469 C 356.167969 371.503906 355.160156 371.980469 354.128906 372.40625 C 353.101562 372.835938 352.050781 373.210938 350.984375 373.535156 C 349.917969 373.859375 348.835938 374.128906 347.742188 374.34375 C 346.648438 374.5625 345.546875 374.726562 344.4375 374.835938 C 343.328125 374.945312 342.214844 375 341.101562 375 L 34.050781 375 C 32.933594 375 31.824219 374.945312 30.710938 374.835938 C 29.601562 374.726562 28.5 374.5625 27.40625 374.347656 C 26.3125 374.128906 25.234375 373.859375 24.164062 373.535156 C 23.097656 373.210938 22.050781 372.835938 21.019531 372.40625 C 19.988281 371.980469 18.984375 371.503906 18 370.980469 C 17.015625 370.453125 16.058594 369.882812 15.132812 369.261719 C 14.207031 368.640625 13.3125 367.976562 12.449219 367.269531 C 11.585938 366.5625 10.761719 365.816406 9.972656 365.027344 C 9.183594 364.238281 8.4375 363.414062 7.730469 362.550781 C 7.023438 361.6875 6.359375 360.792969 5.738281 359.867188 C 5.117188 358.941406 4.546875 357.984375 4.019531 357 C 3.496094 356.015625 3.019531 355.011719 2.59375 353.980469 C 2.164062 352.949219 1.789062 351.902344 1.464844 350.835938 C 1.140625 349.765625 0.871094 348.6875 0.652344 347.59375 C 0.4375 346.5 0.273438 345.398438 0.164062 344.289062 C 0.0546875 343.175781 0 342.066406 0 340.949219 L 0 34.050781 C 0 32.933594 0.0546875 31.824219 0.164062 30.710938 C 0.273438 29.601562 0.4375 28.5 0.652344 27.40625 C 0.871094 26.3125 1.140625 25.234375 1.464844 24.164062 C 1.789062 23.097656 2.164062 22.050781 2.59375 21.019531 C 3.019531 19.988281 3.496094 18.984375 4.019531 18 C 4.546875 17.015625 5.117188 16.058594 5.738281 15.132812 C 6.359375 14.207031 7.023438 13.3125 7.730469 12.449219 C 8.4375 11.585938 9.183594 10.761719 9.972656 9.972656 C 10.761719 9.183594 11.585938 8.4375 12.449219 7.730469 C 13.3125 7.023438 14.207031 6.359375 15.132812 5.738281 C 16.058594 5.117188 17.015625 4.546875 18 4.019531 C 18.984375 3.496094 19.988281 3.019531 21.019531 2.59375 C 22.050781 2.164062 23.097656 1.789062 24.164062 1.464844 C 25.234375 1.140625 26.3125 0.871094 27.40625 0.652344 C 28.5 0.4375 29.601562 0.273438 30.710938 0.164062 C 31.824219 0.0546875 32.933594 0 34.050781 0 L 340.949219 0 C 342.066406 0 343.175781 0.0546875 344.289062 0.164062 C 345.398438 0.273438 346.5 0.4375 347.59375 0.652344 C 348.6875 0.871094 349.765625 1.140625 350.835938 1.464844 C 351.902344 1.789062 352.949219 2.164062 353.980469 2.59375 C 355.011719 3.019531 356.015625 3.496094 357 4.019531 C 357.984375 4.546875 358.941406 5.117188 359.867188 5.738281 C 360.792969 6.359375 361.6875 7.023438 362.550781 7.730469 C 363.414062 8.4375 364.238281 9.183594 365.027344 9.972656 C 365.816406 10.761719 366.5625 11.585938 367.269531 12.449219 C 367.976562 13.3125 368.640625 14.207031 369.261719 15.132812 C 369.882812 16.058594 370.453125 17.015625 370.980469 18 C 371.503906 18.984375 371.980469 19.988281 372.40625 21.019531 C 372.835938 22.050781 373.210938 23.097656 373.535156 24.164062 C 373.859375 25.234375 374.128906 26.3125 374.347656 27.40625 C 374.5625 28.5 374.726562 29.601562 374.835938 30.710938 C 374.945312 31.824219 375 32.933594 375 34.050781 Z M 154.949219 189 C 155.109375 188.523438 155.253906 188.046875 155.382812 187.5625 C 155.511719 187.078125 155.628906 186.589844 155.726562 186.097656 C 155.824219 185.609375 155.910156 185.113281 155.976562 184.617188 C 156.042969 184.121094 156.097656 183.625 156.132812 183.125 C 156.171875 182.625 156.191406 182.125 156.199219 181.621094 C 156.203125 181.121094 156.191406 180.621094 156.167969 180.121094 C 156.140625 179.621094 156.097656 179.121094 156.042969 178.625 C 155.984375 178.125 155.914062 177.628906 155.824219 177.136719 C 155.738281 176.644531 155.632812 176.15625 155.515625 175.667969 C 155.394531 175.179688 155.261719 174.699219 155.113281 174.21875 C 154.964844 173.742188 154.800781 173.269531 154.621094 172.800781 C 154.441406 172.332031 154.25 171.871094 154.042969 171.414062 C 153.835938 170.957031 153.613281 170.507812 153.375 170.066406 C 153.140625 169.625 152.890625 169.191406 152.628906 168.765625 C 152.367188 168.339844 152.089844 167.921875 151.800781 167.511719 C 151.511719 167.101562 151.210938 166.703125 150.894531 166.3125 C 150.582031 165.921875 150.257812 165.542969 149.917969 165.171875 C 149.582031 164.800781 149.230469 164.441406 148.871094 164.09375 C 148.511719 163.746094 148.140625 163.410156 147.757812 163.085938 C 147.375 162.761719 146.984375 162.449219 146.585938 162.148438 C 146.183594 161.847656 145.773438 161.558594 145.355469 161.285156 C 144.933594 161.011719 144.507812 160.75 144.074219 160.5 C 143.636719 160.253906 143.195312 160.019531 142.746094 159.800781 C 142.292969 159.578125 141.839844 159.375 141.375 159.183594 C 140.914062 158.992188 140.445312 158.8125 139.96875 158.652344 C 139.496094 158.488281 139.015625 158.34375 138.535156 158.210938 C 138.050781 158.078125 137.5625 157.960938 137.074219 157.859375 C 136.582031 157.757812 136.089844 157.671875 135.59375 157.601562 C 135.097656 157.527344 134.601562 157.472656 134.101562 157.433594 C 133.601562 157.394531 133.101562 157.371094 132.601562 157.363281 C 132.097656 157.355469 131.597656 157.359375 131.097656 157.382812 C 130.597656 157.40625 130.097656 157.445312 129.601562 157.5 L 92.25 157.5 C 86.851562 185.699219 81.449219 213.300781 76.050781 241.351562 C 81.148438 241.351562 85.800781 241.351562 91.050781 241.351562 C 96.300781 241.351562 95.101562 240.300781 95.550781 237.449219 C 96 234.601562 97.648438 227.398438 98.398438 222.449219 C 99.148438 217.5 100.050781 218.851562 102.75 218.851562 C 108.601562 218.851562 114.449219 218.851562 120.148438 218.851562 C 121.183594 218.828125 122.21875 218.761719 123.246094 218.648438 C 124.277344 218.535156 125.296875 218.382812 126.3125 218.183594 C 127.328125 217.984375 128.335938 217.738281 129.332031 217.453125 C 130.324219 217.167969 131.304688 216.839844 132.273438 216.46875 C 133.242188 216.101562 134.191406 215.691406 135.121094 215.238281 C 136.050781 214.785156 136.964844 214.296875 137.851562 213.765625 C 138.742188 213.234375 139.605469 212.667969 140.449219 212.066406 C 141.289062 211.460938 142.101562 210.820312 142.886719 210.148438 C 143.671875 209.472656 144.429688 208.765625 145.152344 208.027344 C 145.878906 207.289062 146.570312 206.519531 147.230469 205.722656 C 147.890625 204.925781 148.511719 204.097656 149.101562 203.246094 C 149.6875 202.394531 150.238281 201.519531 150.753906 200.621094 C 151.265625 199.71875 151.738281 198.800781 152.171875 197.859375 C 152.605469 196.921875 153 195.964844 153.351562 194.992188 C 153.703125 194.015625 154.011719 193.03125 154.28125 192.03125 C 154.546875 191.03125 154.769531 190.019531 154.949219 189 Z M 217.5 206.398438 C 219.601562 196.050781 221.851562 185.851562 223.050781 175.351562 C 224.25 164.851562 220.199219 159.449219 209.550781 157.800781 C 203.570312 157.074219 197.570312 156.726562 191.550781 156.75 L 182.101562 156.75 C 183.601562 148.949219 184.800781 141.75 186.300781 134.398438 L 172.5 134.398438 C 169.800781 134.398438 168.898438 135.300781 168.300781 138 C 165.601562 153 162.449219 168 159.601562 183 C 157.351562 194.398438 155.101562 205.800781 152.851562 217.648438 C 157.800781 217.648438 162.300781 217.648438 166.800781 217.648438 C 171.300781 217.648438 171.148438 216.601562 171.75 213.601562 C 173.398438 203.550781 175.5 193.648438 177.601562 183.601562 C 178.5 178.800781 178.5 171.898438 181.5 169.949219 C 184.5 168 191.550781 169.050781 196.5 169.949219 C 204 169.949219 206.101562 172.800781 204.75 180.148438 C 202.5 192.601562 200.101562 205.050781 197.550781 217.949219 L 203.699219 217.949219 C 215.398438 217.5 215.550781 218.25 217.5 206.398438 Z M 277.5 157.5 C 263.699219 156.449219 249.75 157.5 235.648438 157.5 C 230.25 185.25 224.851562 212.851562 219.449219 240.75 L 237.601562 240.75 C 238.351562 237 238.949219 233.398438 239.699219 229.800781 L 242.101562 218.398438 C 249.449219 218.398438 256.351562 218.398438 263.101562 218.398438 C 264.152344 218.398438 265.199219 218.347656 266.246094 218.253906 C 267.292969 218.160156 268.335938 218.019531 269.371094 217.832031 C 270.402344 217.648438 271.429688 217.417969 272.441406 217.140625 C 273.457031 216.863281 274.457031 216.546875 275.445312 216.183594 C 276.429688 215.820312 277.398438 215.414062 278.351562 214.964844 C 279.300781 214.515625 280.230469 214.027344 281.136719 213.5 C 282.046875 212.96875 282.929688 212.402344 283.789062 211.792969 C 284.644531 211.1875 285.476562 210.542969 286.277344 209.863281 C 287.082031 209.183594 287.851562 208.472656 288.589844 207.722656 C 289.328125 206.976562 290.035156 206.199219 290.707031 205.390625 C 291.378906 204.582031 292.011719 203.746094 292.609375 202.878906 C 293.207031 202.015625 293.765625 201.125 294.289062 200.214844 C 294.808594 199.300781 295.285156 198.363281 295.726562 197.410156 C 296.164062 196.453125 296.558594 195.480469 296.914062 194.492188 C 297.265625 193.5 297.574219 192.496094 297.839844 191.480469 C 298.105469 190.464844 298.324219 189.4375 298.5 188.398438 C 298.824219 187.546875 299.097656 186.675781 299.316406 185.789062 C 299.535156 184.902344 299.703125 184.007812 299.816406 183.101562 C 299.925781 182.195312 299.984375 181.285156 299.988281 180.371094 C 299.992188 179.457031 299.9375 178.546875 299.832031 177.640625 C 299.726562 176.734375 299.566406 175.835938 299.351562 174.949219 C 299.136719 174.0625 298.871094 173.1875 298.550781 172.332031 C 298.234375 171.476562 297.863281 170.644531 297.445312 169.832031 C 297.023438 169.019531 296.558594 168.238281 296.046875 167.480469 C 295.53125 166.726562 294.976562 166.003906 294.375 165.316406 C 293.773438 164.628906 293.136719 163.976562 292.457031 163.367188 C 291.78125 162.753906 291.066406 162.1875 290.320312 161.660156 C 289.574219 161.132812 288.796875 160.652344 287.996094 160.222656 C 287.191406 159.789062 286.363281 159.40625 285.511719 159.070312 C 284.664062 158.738281 283.796875 158.457031 282.910156 158.226562 C 282.027344 158 281.132812 157.824219 280.226562 157.703125 C 279.324219 157.578125 278.414062 157.511719 277.5 157.5 Z M 277.5 157.5 " fill-opacity="1" fill-rule="nonzero"/></g></svg>