<svg xmlns="http://www.w3.org/2000/svg" xmlns:xlink="http://www.w3.org/1999/xlink" width="500" zoomAndPan="magnify" viewBox="0 0 375 374.999991" height="500" preserveAspectRatio="xMidYMid meet" version="1.0"><defs><clipPath id="24fcc65fcc"><path d="M 113 97 L 337.5 97 L 337.5 189 L 113 189 Z M 113 97 " clip-rule="nonzero"/></clipPath><clipPath id="6117c7679e"><path d="M 37.5 188 L 262 188 L 262 279 L 37.5 279 Z M 37.5 188 " clip-rule="nonzero"/></clipPath></defs><path fill="#002b2e" d="M 93.796875 -0.046875 C 42.023438 -0.046875 0.046875 41.929688 0.046875 93.703125 L 0.046875 281.203125 C 0.046875 332.976562 42.023438 374.953125 93.796875 374.953125 L 281.296875 374.953125 C 333.070312 374.953125 375.046875 332.976562 375.046875 281.203125 L 375.046875 93.703125 C 375.046875 41.929688 333.070312 -0.046875 281.296875 -0.046875 Z M 93.796875 -0.046875 " fill-opacity="1" fill-rule="nonzero"/><g clip-path="url(#24fcc65fcc)"><path fill="#35dde5" d="M 113.101562 155.726562 C 120.449219 123.570312 141.21875 103.707031 169.566406 98.902344 C 187.835938 95.808594 205.703125 96.984375 222.910156 104.242188 C 232.714844 108.378906 241.054688 114.757812 248.652344 122.132812 C 253.71875 127.046875 258.777344 131.96875 263.6875 137.039062 C 283.421875 157.417969 311.433594 156.214844 330.152344 136.308594 C 332.203125 134.128906 334.238281 131.929688 336.277344 129.742188 L 337.5 130.289062 C 334.679688 137.207031 332.378906 144.394531 328.945312 150.988281 C 317.539062 172.882812 299.15625 184.621094 274.753906 187.265625 C 255.574219 189.34375 237.140625 187.296875 220.015625 177.734375 C 208.667969 171.398438 200.035156 161.835938 190.722656 153.035156 C 184.90625 147.539062 178.917969 141.625 171.898438 138.132812 C 155.75 130.09375 139.984375 132.617188 125.820312 143.691406 C 121.339844 147.195312 117.5 151.523438 113.101562 155.726562 Z M 113.101562 155.726562 " fill-opacity="1" fill-rule="nonzero"/></g><g clip-path="url(#6117c7679e)"><path fill="#35dde5" d="M 37.5 247.292969 C 39.855469 237.09375 43.277344 228.664062 48.070312 220.816406 C 59.863281 201.496094 77.339844 191.292969 99.589844 188.816406 C 121.40625 186.390625 142.265625 189.039062 160.5 202.152344 C 168.386719 207.828125 175.027344 215.214844 182.449219 221.574219 C 189.1875 227.351562 195.511719 234.199219 203.261719 238.082031 C 218.855469 245.886719 234.363281 243.476562 248.222656 232.859375 C 252.960938 229.230469 257.023438 224.714844 261.882812 220.148438 C 259.761719 229.28125 256.277344 237.855469 251.429688 245.875 C 237.554688 268.839844 216.097656 277.835938 190.441406 278.699219 C 165.351562 279.542969 143.515625 271.644531 125.664062 253.554688 C 120.503906 248.328125 115.316406 243.121094 109.957031 238.105469 C 89.828125 219.261719 65.125 219.574219 45.382812 238.871094 C 42.941406 241.253906 40.707031 243.855469 37.5 247.292969 Z M 37.5 247.292969 " fill-opacity="1" fill-rule="nonzero"/></g></svg>