<svg xmlns="http://www.w3.org/2000/svg" xmlns:xlink="http://www.w3.org/1999/xlink" width="500" zoomAndPan="magnify" viewBox="0 0 375 374.999991" height="500" preserveAspectRatio="xMidYMid meet" version="1.0"><path fill="#7cacf8" d="M 93.796875 -0.046875 C 42.023438 -0.046875 0.046875 41.929688 0.046875 93.703125 L 0.046875 281.203125 C 0.046875 332.976562 42.023438 374.953125 93.796875 374.953125 L 281.296875 374.953125 C 333.070312 374.953125 375.046875 332.976562 375.046875 281.203125 L 375.046875 93.703125 C 375.046875 41.929688 333.070312 -0.046875 281.296875 -0.046875 Z M 93.796875 -0.046875 " fill-opacity="1" fill-rule="nonzero"/><path fill="#ff9100" d="M 139.714844 317.171875 C 151.675781 321.984375 164.652344 324.84375 178.273438 325.320312 C 196.714844 325.960938 214.25 322.148438 229.925781 314.90625 C 211.125 307.519531 194.101562 296.714844 179.574219 283.28125 C 170.15625 298.367188 156.226562 310.28125 139.714844 317.171875 Z M 139.714844 317.171875 " fill-opacity="1" fill-rule="nonzero"/><path fill="#ffc400" d="M 179.570312 283.285156 C 146.40625 252.605469 126.285156 208.195312 127.984375 159.484375 C 128.039062 157.902344 128.125 156.320312 128.222656 154.742188 C 122.28125 153.203125 116.082031 152.265625 109.699219 152.042969 C 100.5625 151.726562 91.71875 152.859375 83.367188 155.210938 C 74.511719 170.722656 69.171875 188.523438 68.503906 207.589844 C 66.785156 256.796875 96.554688 299.789062 139.710938 317.175781 C 156.222656 310.285156 170.152344 298.386719 179.570312 283.285156 Z M 179.570312 283.285156 " fill-opacity="1" fill-rule="nonzero"/><path fill="#ff9100" d="M 179.570312 283.285156 C 187.28125 270.941406 191.957031 256.46875 192.503906 240.878906 C 193.933594 199.867188 166.371094 164.585938 128.222656 154.738281 C 128.125 156.320312 128.042969 157.902344 127.988281 159.484375 C 126.285156 208.191406 146.40625 252.601562 179.570312 283.285156 Z M 179.570312 283.285156 " fill-opacity="1" fill-rule="nonzero"/><path fill="#dd2c00" d="M 188.234375 39.453125 C 166.507812 56.867188 149.351562 79.824219 138.972656 106.273438 C 133.03125 121.421875 129.296875 137.691406 128.207031 154.75 C 166.351562 164.59375 193.917969 199.875 192.484375 240.890625 C 191.941406 256.480469 187.25 270.9375 179.554688 283.296875 C 194.082031 296.742188 211.109375 307.53125 229.90625 314.917969 C 267.632812 297.472656 294.402344 259.933594 295.953125 215.53125 C 296.957031 186.761719 285.910156 161.121094 270.292969 139.480469 C 253.804688 116.589844 188.234375 39.453125 188.234375 39.453125 Z M 188.234375 39.453125 " fill-opacity="1" fill-rule="nonzero"/></svg>